G04 #@! TF.FileFunction,Legend,Bot*
%FSLAX46Y46*%
G04 Gerber Fmt 4.6, Leading zero omitted, Abs format (unit mm)*
G04 Created by KiCad (PCBNEW 4.0.7) date Friday, 20 October 2017 'PMt' 14:22:44*
%MOMM*%
%LPD*%
G01*
G04 APERTURE LIST*
%ADD10C,0.100000*%
%ADD11C,0.250000*%
%ADD12C,0.200000*%
%ADD13C,0.300000*%
%ADD14C,0.152400*%
%ADD15C,0.150000*%
G04 APERTURE END LIST*
D10*
D11*
X219940286Y-121975619D02*
X219940286Y-122975619D01*
X220511715Y-121975619D01*
X220511715Y-122975619D01*
X221559334Y-122070857D02*
X221511715Y-122023238D01*
X221368858Y-121975619D01*
X221273620Y-121975619D01*
X221130762Y-122023238D01*
X221035524Y-122118476D01*
X220987905Y-122213714D01*
X220940286Y-122404190D01*
X220940286Y-122547048D01*
X220987905Y-122737524D01*
X221035524Y-122832762D01*
X221130762Y-122928000D01*
X221273620Y-122975619D01*
X221368858Y-122975619D01*
X221511715Y-122928000D01*
X221559334Y-122880381D01*
X219940286Y-119308619D02*
X219940286Y-120308619D01*
X220511715Y-119308619D01*
X220511715Y-120308619D01*
X221559334Y-119403857D02*
X221511715Y-119356238D01*
X221368858Y-119308619D01*
X221273620Y-119308619D01*
X221130762Y-119356238D01*
X221035524Y-119451476D01*
X220987905Y-119546714D01*
X220940286Y-119737190D01*
X220940286Y-119880048D01*
X220987905Y-120070524D01*
X221035524Y-120165762D01*
X221130762Y-120261000D01*
X221273620Y-120308619D01*
X221368858Y-120308619D01*
X221511715Y-120261000D01*
X221559334Y-120213381D01*
X219940286Y-116895619D02*
X219940286Y-117895619D01*
X220511715Y-116895619D01*
X220511715Y-117895619D01*
X221559334Y-116990857D02*
X221511715Y-116943238D01*
X221368858Y-116895619D01*
X221273620Y-116895619D01*
X221130762Y-116943238D01*
X221035524Y-117038476D01*
X220987905Y-117133714D01*
X220940286Y-117324190D01*
X220940286Y-117467048D01*
X220987905Y-117657524D01*
X221035524Y-117752762D01*
X221130762Y-117848000D01*
X221273620Y-117895619D01*
X221368858Y-117895619D01*
X221511715Y-117848000D01*
X221559334Y-117800381D01*
X219940286Y-114609619D02*
X219940286Y-115609619D01*
X220511715Y-114609619D01*
X220511715Y-115609619D01*
X221559334Y-114704857D02*
X221511715Y-114657238D01*
X221368858Y-114609619D01*
X221273620Y-114609619D01*
X221130762Y-114657238D01*
X221035524Y-114752476D01*
X220987905Y-114847714D01*
X220940286Y-115038190D01*
X220940286Y-115181048D01*
X220987905Y-115371524D01*
X221035524Y-115466762D01*
X221130762Y-115562000D01*
X221273620Y-115609619D01*
X221368858Y-115609619D01*
X221511715Y-115562000D01*
X221559334Y-115514381D01*
D12*
X215138000Y-121031000D02*
X222504000Y-121031000D01*
X215138000Y-118618000D02*
X222504000Y-118618000D01*
X215138000Y-116332000D02*
X222504000Y-116332000D01*
X222504000Y-123444000D02*
X218948000Y-123444000D01*
X222504000Y-113792000D02*
X222504000Y-123444000D01*
X218948000Y-113792000D02*
X222504000Y-113792000D01*
X218948000Y-113792000D02*
X215138000Y-113792000D01*
X218821000Y-123444000D02*
X218821000Y-113792000D01*
X215138000Y-123444000D02*
X218948000Y-123444000D01*
X215138000Y-113792000D02*
X215138000Y-123444000D01*
D11*
X215677905Y-122356571D02*
X216439810Y-122356571D01*
X216058858Y-121975619D02*
X216058858Y-122737524D01*
X217392191Y-122975619D02*
X216916000Y-122975619D01*
X216868381Y-122499429D01*
X216916000Y-122547048D01*
X217011238Y-122594667D01*
X217249334Y-122594667D01*
X217344572Y-122547048D01*
X217392191Y-122499429D01*
X217439810Y-122404190D01*
X217439810Y-122166095D01*
X217392191Y-122070857D01*
X217344572Y-122023238D01*
X217249334Y-121975619D01*
X217011238Y-121975619D01*
X216916000Y-122023238D01*
X216868381Y-122070857D01*
X217773143Y-122642286D02*
X218011238Y-121975619D01*
X218249334Y-122642286D01*
X216154096Y-120388000D02*
X216058858Y-120435619D01*
X215916001Y-120435619D01*
X215773143Y-120388000D01*
X215677905Y-120292762D01*
X215630286Y-120197524D01*
X215582667Y-120007048D01*
X215582667Y-119864190D01*
X215630286Y-119673714D01*
X215677905Y-119578476D01*
X215773143Y-119483238D01*
X215916001Y-119435619D01*
X216011239Y-119435619D01*
X216154096Y-119483238D01*
X216201715Y-119530857D01*
X216201715Y-119864190D01*
X216011239Y-119864190D01*
X216630286Y-119435619D02*
X216630286Y-120435619D01*
X217201715Y-119435619D01*
X217201715Y-120435619D01*
X217677905Y-119435619D02*
X217677905Y-120435619D01*
X217916000Y-120435619D01*
X218058858Y-120388000D01*
X218154096Y-120292762D01*
X218201715Y-120197524D01*
X218249334Y-120007048D01*
X218249334Y-119864190D01*
X218201715Y-119673714D01*
X218154096Y-119578476D01*
X218058858Y-119483238D01*
X217916000Y-119435619D01*
X217677905Y-119435619D01*
X216487429Y-117022619D02*
X216154095Y-117498810D01*
X215916000Y-117022619D02*
X215916000Y-118022619D01*
X216296953Y-118022619D01*
X216392191Y-117975000D01*
X216439810Y-117927381D01*
X216487429Y-117832143D01*
X216487429Y-117689286D01*
X216439810Y-117594048D01*
X216392191Y-117546429D01*
X216296953Y-117498810D01*
X215916000Y-117498810D01*
X216820762Y-117022619D02*
X217344572Y-117689286D01*
X216820762Y-117689286D02*
X217344572Y-117022619D01*
X217963619Y-117689286D02*
X217677905Y-117403571D01*
X217963619Y-117117857D01*
X215892190Y-115609619D02*
X216463619Y-115609619D01*
X216177904Y-114609619D02*
X216177904Y-115609619D01*
X216701714Y-114609619D02*
X217225524Y-115276286D01*
X216701714Y-115276286D02*
X217225524Y-114609619D01*
X217558857Y-115276286D02*
X217844571Y-114990571D01*
X217558857Y-114704857D01*
X224520334Y-125658619D02*
X224187000Y-126134810D01*
X223948905Y-125658619D02*
X223948905Y-126658619D01*
X224329858Y-126658619D01*
X224425096Y-126611000D01*
X224472715Y-126563381D01*
X224520334Y-126468143D01*
X224520334Y-126325286D01*
X224472715Y-126230048D01*
X224425096Y-126182429D01*
X224329858Y-126134810D01*
X223948905Y-126134810D01*
X224901286Y-125944333D02*
X225377477Y-125944333D01*
X224806048Y-125658619D02*
X225139381Y-126658619D01*
X225472715Y-125658619D01*
X225806048Y-125658619D02*
X225806048Y-126658619D01*
X226139382Y-125944333D01*
X226472715Y-126658619D01*
X226472715Y-125658619D01*
X226948905Y-125658619D02*
X226948905Y-126658619D01*
X227329858Y-126658619D01*
X227425096Y-126611000D01*
X227472715Y-126563381D01*
X227520334Y-126468143D01*
X227520334Y-126325286D01*
X227472715Y-126230048D01*
X227425096Y-126182429D01*
X227329858Y-126134810D01*
X226948905Y-126134810D01*
X227901286Y-125706238D02*
X228044143Y-125658619D01*
X228282239Y-125658619D01*
X228377477Y-125706238D01*
X228425096Y-125753857D01*
X228472715Y-125849095D01*
X228472715Y-125944333D01*
X228425096Y-126039571D01*
X228377477Y-126087190D01*
X228282239Y-126134810D01*
X228091762Y-126182429D01*
X227996524Y-126230048D01*
X227948905Y-126277667D01*
X227901286Y-126372905D01*
X227901286Y-126468143D01*
X227948905Y-126563381D01*
X227996524Y-126611000D01*
X228091762Y-126658619D01*
X228329858Y-126658619D01*
X228472715Y-126611000D01*
D13*
X213797572Y-111232143D02*
X214297572Y-111232143D01*
X214511858Y-110446429D02*
X213797572Y-110446429D01*
X213797572Y-111946429D01*
X214511858Y-111946429D01*
X215083286Y-110517857D02*
X215297572Y-110446429D01*
X215654715Y-110446429D01*
X215797572Y-110517857D01*
X215869001Y-110589286D01*
X215940429Y-110732143D01*
X215940429Y-110875000D01*
X215869001Y-111017857D01*
X215797572Y-111089286D01*
X215654715Y-111160714D01*
X215369001Y-111232143D01*
X215226143Y-111303571D01*
X215154715Y-111375000D01*
X215083286Y-111517857D01*
X215083286Y-111660714D01*
X215154715Y-111803571D01*
X215226143Y-111875000D01*
X215369001Y-111946429D01*
X215726143Y-111946429D01*
X215940429Y-111875000D01*
X216583286Y-110446429D02*
X216583286Y-111946429D01*
X217154714Y-111946429D01*
X217297572Y-111875000D01*
X217369000Y-111803571D01*
X217440429Y-111660714D01*
X217440429Y-111446429D01*
X217369000Y-111303571D01*
X217297572Y-111232143D01*
X217154714Y-111160714D01*
X216583286Y-111160714D01*
X217940429Y-111946429D02*
X218869000Y-111946429D01*
X218369000Y-111375000D01*
X218583286Y-111375000D01*
X218726143Y-111303571D01*
X218797572Y-111232143D01*
X218869000Y-111089286D01*
X218869000Y-110732143D01*
X218797572Y-110589286D01*
X218726143Y-110517857D01*
X218583286Y-110446429D01*
X218154714Y-110446429D01*
X218011857Y-110517857D01*
X217940429Y-110589286D01*
X219511857Y-110446429D02*
X219511857Y-111946429D01*
X219869000Y-111946429D01*
X220083285Y-111875000D01*
X220226143Y-111732143D01*
X220297571Y-111589286D01*
X220369000Y-111303571D01*
X220369000Y-111089286D01*
X220297571Y-110803571D01*
X220226143Y-110660714D01*
X220083285Y-110517857D01*
X219869000Y-110446429D01*
X219511857Y-110446429D01*
X221011857Y-111017857D02*
X222154714Y-111017857D01*
X222797571Y-110517857D02*
X223011857Y-110446429D01*
X223369000Y-110446429D01*
X223511857Y-110517857D01*
X223583286Y-110589286D01*
X223654714Y-110732143D01*
X223654714Y-110875000D01*
X223583286Y-111017857D01*
X223511857Y-111089286D01*
X223369000Y-111160714D01*
X223083286Y-111232143D01*
X222940428Y-111303571D01*
X222869000Y-111375000D01*
X222797571Y-111517857D01*
X222797571Y-111660714D01*
X222869000Y-111803571D01*
X222940428Y-111875000D01*
X223083286Y-111946429D01*
X223440428Y-111946429D01*
X223654714Y-111875000D01*
X224297571Y-110446429D02*
X224297571Y-111946429D01*
X224297571Y-111232143D02*
X225154714Y-111232143D01*
X225154714Y-110446429D02*
X225154714Y-111946429D01*
X225869000Y-110446429D02*
X225869000Y-111946429D01*
X226583286Y-111232143D02*
X227083286Y-111232143D01*
X227297572Y-110446429D02*
X226583286Y-110446429D01*
X226583286Y-111946429D01*
X227297572Y-111946429D01*
X228654715Y-110446429D02*
X227940429Y-110446429D01*
X227940429Y-111946429D01*
X229154715Y-110446429D02*
X229154715Y-111946429D01*
X229511858Y-111946429D01*
X229726143Y-111875000D01*
X229869001Y-111732143D01*
X229940429Y-111589286D01*
X230011858Y-111303571D01*
X230011858Y-111089286D01*
X229940429Y-110803571D01*
X229869001Y-110660714D01*
X229726143Y-110517857D01*
X229511858Y-110446429D01*
X229154715Y-110446429D01*
D14*
X209169000Y-110744000D02*
X209931000Y-110744000D01*
X209931000Y-110744000D02*
X209931000Y-126746000D01*
X209931000Y-126746000D02*
X209169000Y-126746000D01*
D15*
X207097381Y-117983095D02*
X207906905Y-117983095D01*
X208002143Y-118030714D01*
X208049762Y-118078333D01*
X208097381Y-118173571D01*
X208097381Y-118364048D01*
X208049762Y-118459286D01*
X208002143Y-118506905D01*
X207906905Y-118554524D01*
X207097381Y-118554524D01*
X207192619Y-118983095D02*
X207145000Y-119030714D01*
X207097381Y-119125952D01*
X207097381Y-119364048D01*
X207145000Y-119459286D01*
X207192619Y-119506905D01*
X207287857Y-119554524D01*
X207383095Y-119554524D01*
X207525952Y-119506905D01*
X208097381Y-118935476D01*
X208097381Y-119554524D01*
M02*
