M48
;DRILL file {KiCad 4.0.7} date Friday, 20 October 2017 'PMt' 14:23:01
;FORMAT={3:3/ absolute / metric / suppress leading zeros}
FMAT,2
METRIC,TZ
T1C0.400
T2C1.016
%
G90
G05
M71
T1
X194310Y-113665
X198129Y-121144
X199390Y-116840
X201345Y-114649
X201930Y-119380
X202995Y-113111
X203450Y-115605
X203835Y-122555
X203835Y-123825
X205784Y-122633
X207707Y-122801
X207910Y-118512
X210185Y-111760
X210820Y-110490
X212726Y-113510
X212915Y-127667
X213584Y-125679
X215264Y-121543
T2
X224790Y-114935
X224790Y-117475
X224790Y-120015
X224790Y-122555
X227330Y-114935
X227330Y-117475
X227330Y-120015
X227330Y-122555
T0
M30
