G04 #@! TF.FileFunction,Legend,Bot*
%FSLAX46Y46*%
G04 Gerber Fmt 4.6, Leading zero omitted, Abs format (unit mm)*
G04 Created by KiCad (PCBNEW 4.0.7) date Thursday, 19 October 2017 'PMt' 19:38:29*
%MOMM*%
%LPD*%
G01*
G04 APERTURE LIST*
%ADD10C,0.100000*%
%ADD11C,0.152400*%
%ADD12C,0.120000*%
%ADD13C,0.150000*%
G04 APERTURE END LIST*
D10*
D11*
X209169000Y-110744000D02*
X209931000Y-110744000D01*
X209931000Y-110744000D02*
X209931000Y-126746000D01*
X209931000Y-126746000D02*
X209169000Y-126746000D01*
D12*
X222825000Y-116205000D02*
X222825000Y-123885000D01*
X222825000Y-123885000D02*
X228025000Y-123885000D01*
X228025000Y-123885000D02*
X228025000Y-113605000D01*
X228025000Y-113605000D02*
X225425000Y-113605000D01*
X225425000Y-113605000D02*
X225425000Y-116205000D01*
X225425000Y-116205000D02*
X222825000Y-116205000D01*
X222825000Y-114935000D02*
X222825000Y-113605000D01*
X222825000Y-113605000D02*
X224095000Y-113605000D01*
D13*
X207097381Y-117983095D02*
X207906905Y-117983095D01*
X208002143Y-118030714D01*
X208049762Y-118078333D01*
X208097381Y-118173571D01*
X208097381Y-118364048D01*
X208049762Y-118459286D01*
X208002143Y-118506905D01*
X207906905Y-118554524D01*
X207097381Y-118554524D01*
X207192619Y-118983095D02*
X207145000Y-119030714D01*
X207097381Y-119125952D01*
X207097381Y-119364048D01*
X207145000Y-119459286D01*
X207192619Y-119506905D01*
X207287857Y-119554524D01*
X207383095Y-119554524D01*
X207525952Y-119506905D01*
X208097381Y-118935476D01*
X208097381Y-119554524D01*
M02*
