G04 #@! TF.FileFunction,Copper,L1,Top,Signal*
%FSLAX46Y46*%
G04 Gerber Fmt 4.6, Leading zero omitted, Abs format (unit mm)*
G04 Created by KiCad (PCBNEW 4.0.7) date Friday, 20 October 2017 'PMt' 14:22:44*
%MOMM*%
%LPD*%
G01*
G04 APERTURE LIST*
%ADD10C,0.100000*%
%ADD11R,1.950000X1.500000*%
%ADD12R,0.800000X0.900000*%
%ADD13R,0.900000X0.800000*%
%ADD14R,0.900000X0.400000*%
%ADD15R,3.800000X2.000000*%
%ADD16R,1.500000X2.000000*%
%ADD17R,1.000760X1.000760*%
%ADD18R,1.727200X1.727200*%
%ADD19O,1.727200X1.727200*%
%ADD20C,1.000000*%
%ADD21C,0.400000*%
%ADD22C,0.600000*%
%ADD23C,0.254000*%
G04 APERTURE END LIST*
D10*
D11*
X218545000Y-127000000D03*
X215795000Y-127000000D03*
X213255000Y-110490000D03*
X216005000Y-110490000D03*
D12*
X200980000Y-117840000D03*
X202880000Y-117840000D03*
X201930000Y-115840000D03*
D13*
X202930000Y-122235000D03*
X202930000Y-120335000D03*
X200930000Y-121285000D03*
D14*
X206590000Y-114700000D03*
X206590000Y-113900000D03*
X206590000Y-115500000D03*
X206590000Y-113100000D03*
X204890000Y-115500000D03*
X204890000Y-114700000D03*
X204890000Y-113900000D03*
X204890000Y-113100000D03*
X204470000Y-119380000D03*
X204470000Y-120180000D03*
X204470000Y-118580000D03*
X204470000Y-120980000D03*
X206170000Y-118580000D03*
X206170000Y-119380000D03*
X206170000Y-120180000D03*
X206170000Y-120980000D03*
D15*
X217170000Y-117500000D03*
D16*
X217170000Y-123800000D03*
X219470000Y-123800000D03*
X214870000Y-123800000D03*
D17*
X199179180Y-113665000D03*
X191980820Y-113665000D03*
X199179180Y-118745000D03*
X191980820Y-118745000D03*
X199179180Y-123825000D03*
X191980820Y-123825000D03*
D18*
X227330000Y-122555000D03*
D19*
X224790000Y-122555000D03*
X227330000Y-120015000D03*
X224790000Y-120015000D03*
X227330000Y-117475000D03*
X224790000Y-117475000D03*
X227330000Y-114935000D03*
X224790000Y-114935000D03*
D20*
X212726374Y-113509681D03*
X212915133Y-127666784D03*
X210185000Y-111760000D03*
X207707012Y-122800935D03*
X205784149Y-122633148D03*
X207910010Y-118511988D03*
X215264163Y-121542526D03*
X203835000Y-122555000D03*
X210820000Y-110490000D03*
X199390000Y-116840000D03*
X201930000Y-119380000D03*
X213584435Y-125678955D03*
X203450084Y-115605180D03*
X194310000Y-113665000D03*
X201344968Y-114649447D03*
X198128825Y-121144030D03*
X202994674Y-113111185D03*
X203835000Y-123825000D03*
D21*
X223157377Y-122555000D02*
X223647000Y-122555000D01*
X223647000Y-122555000D02*
X224155000Y-122555000D01*
X224790000Y-122555000D02*
X223647000Y-122555000D01*
X219470000Y-123800000D02*
X221912377Y-123800000D01*
X221912377Y-123800000D02*
X223157377Y-122555000D01*
X206170000Y-120180000D02*
X206170750Y-120179250D01*
X206170750Y-120179250D02*
X218221425Y-120179250D01*
X218221425Y-120179250D02*
X219470000Y-121427825D01*
X219470000Y-121427825D02*
X219470000Y-123800000D01*
X206170000Y-119380000D02*
X206170000Y-120180000D01*
X218545000Y-127000000D02*
X219501749Y-126043251D01*
X219501749Y-126043251D02*
X219501749Y-123831749D01*
X219501749Y-123831749D02*
X219470000Y-123800000D01*
X212725000Y-113511055D02*
X212726374Y-113509681D01*
X212725000Y-113545000D02*
X212725000Y-113511055D01*
D22*
X215780000Y-110490000D02*
X215780000Y-112322693D01*
X215780000Y-112322693D02*
X214593012Y-113509681D01*
X214593012Y-113509681D02*
X212760319Y-113509681D01*
X212760319Y-113509681D02*
X212725000Y-113545000D01*
X215795000Y-127000000D02*
X215778394Y-127016606D01*
X215778394Y-127016606D02*
X213565311Y-127016606D01*
X213565311Y-127016606D02*
X213415132Y-127166785D01*
X213415132Y-127166785D02*
X212915133Y-127666784D01*
D21*
X206590000Y-113100000D02*
X206340000Y-113100000D01*
X206340000Y-113100000D02*
X204547465Y-111307465D01*
X204547465Y-111307465D02*
X200636335Y-111307465D01*
X200636335Y-111307465D02*
X199179180Y-112764620D01*
X199179180Y-112764620D02*
X199179180Y-113665000D01*
X191980820Y-118745000D02*
X191980820Y-118692906D01*
X191980820Y-118692906D02*
X197008726Y-113665000D01*
X197008726Y-113665000D02*
X199179180Y-113665000D01*
X191980820Y-123825000D02*
X191980820Y-122924620D01*
X191980820Y-122924620D02*
X191980820Y-118745000D01*
X206590000Y-113100000D02*
X208845000Y-113100000D01*
X208845000Y-113100000D02*
X210185000Y-111760000D01*
X216005000Y-110490000D02*
X215780000Y-110490000D01*
X215795000Y-127000000D02*
X214885968Y-126090968D01*
X214885968Y-126090968D02*
X214885968Y-123815968D01*
X214885968Y-123815968D02*
X214870000Y-123800000D01*
X207539225Y-122633148D02*
X207707012Y-122800935D01*
X205784149Y-122633148D02*
X207539225Y-122633148D01*
X206170000Y-120980000D02*
X206170000Y-122247297D01*
X206170000Y-122247297D02*
X205784149Y-122633148D01*
X206170000Y-120980000D02*
X206647818Y-120980000D01*
X206170000Y-118580000D02*
X207841998Y-118580000D01*
X207841998Y-118580000D02*
X207910010Y-118511988D01*
D22*
X206271110Y-121081110D02*
X214802747Y-121081110D01*
X214802747Y-121081110D02*
X215264163Y-121542526D01*
X217170000Y-123550000D02*
X217170000Y-122168980D01*
X215327084Y-121605447D02*
X215264163Y-121542526D01*
X216606467Y-121605447D02*
X215327084Y-121605447D01*
X217170000Y-122168980D02*
X216606467Y-121605447D01*
D21*
X202930000Y-122235000D02*
X200309998Y-122235000D01*
X200309998Y-122235000D02*
X199471128Y-121396130D01*
X199471128Y-121396130D02*
X199471128Y-120556772D01*
X199471128Y-120556772D02*
X200980000Y-119047900D01*
X200980000Y-119047900D02*
X200980000Y-117840000D01*
X202930000Y-122235000D02*
X203515000Y-122235000D01*
X203515000Y-122235000D02*
X203835000Y-122555000D01*
X211319999Y-110989999D02*
X210820000Y-110490000D01*
X211319999Y-111957005D02*
X211319999Y-110989999D01*
X209377004Y-113900000D02*
X211319999Y-111957005D01*
X206590000Y-113900000D02*
X209377004Y-113900000D01*
X206590000Y-114700000D02*
X206590000Y-115500000D01*
X206590000Y-113900000D02*
X206590000Y-114700000D01*
X217170000Y-123800000D02*
X217170000Y-123550000D01*
D22*
X213255000Y-110490000D02*
X210820000Y-110490000D01*
D21*
X202880000Y-117840000D02*
X201880000Y-116840000D01*
X201880000Y-116840000D02*
X199390000Y-116840000D01*
X204470000Y-119380000D02*
X203570000Y-119380000D01*
X203570000Y-119380000D02*
X202880000Y-118690000D01*
X202880000Y-118690000D02*
X202880000Y-117840000D01*
X222920730Y-114935000D02*
X224790000Y-114935000D01*
X214761678Y-114935000D02*
X222920730Y-114935000D01*
X212870410Y-116826268D02*
X214761678Y-114935000D01*
X205223732Y-116826268D02*
X212870410Y-116826268D01*
X204470000Y-117580000D02*
X205223732Y-116826268D01*
X204470000Y-117580000D02*
X203440836Y-116550836D01*
X203440836Y-116550836D02*
X202590836Y-116550836D01*
X201930000Y-115890000D02*
X201930000Y-115840000D01*
X202590836Y-116550836D02*
X201930000Y-115890000D01*
X204470000Y-118580000D02*
X204470000Y-117580000D01*
X202930000Y-120335000D02*
X202885000Y-120335000D01*
X202885000Y-120335000D02*
X201930000Y-119380000D01*
X204470000Y-120180000D02*
X203085000Y-120180000D01*
X203085000Y-120180000D02*
X202930000Y-120335000D01*
X204863172Y-121973172D02*
X204863172Y-123044177D01*
X204470000Y-120980000D02*
X204470000Y-121580000D01*
X204863172Y-123044177D02*
X207497950Y-125678955D01*
X204470000Y-121580000D02*
X204863172Y-121973172D01*
X212877329Y-125678955D02*
X213584435Y-125678955D01*
X207497950Y-125678955D02*
X212877329Y-125678955D01*
X204470000Y-120980000D02*
X204165000Y-121285000D01*
X204165000Y-121285000D02*
X200930000Y-121285000D01*
X204890000Y-115500000D02*
X203555264Y-115500000D01*
X203555264Y-115500000D02*
X203450084Y-115605180D01*
X191980820Y-113665000D02*
X194310000Y-113665000D01*
X201395521Y-114700000D02*
X201344968Y-114649447D01*
X204890000Y-114700000D02*
X201395521Y-114700000D01*
X201286621Y-113434987D02*
X198489998Y-116231610D01*
X202018120Y-113434987D02*
X201286621Y-113434987D01*
X198489998Y-118055818D02*
X199179180Y-118745000D01*
X198489998Y-116231610D02*
X198489998Y-118055818D01*
X204890000Y-113900000D02*
X204040000Y-113900000D01*
X204040000Y-113900000D02*
X203928813Y-114011187D01*
X203928813Y-114011187D02*
X202594320Y-114011187D01*
X202594320Y-114011187D02*
X202018120Y-113434987D01*
X199179180Y-118745000D02*
X199179180Y-119548365D01*
X199179180Y-119548365D02*
X198628824Y-120098721D01*
X198628824Y-120098721D02*
X198628824Y-120644031D01*
X198628824Y-120644031D02*
X198128825Y-121144030D01*
X204890000Y-113100000D02*
X203005859Y-113100000D01*
X203005859Y-113100000D02*
X202994674Y-113111185D01*
X199179180Y-123825000D02*
X203835000Y-123825000D01*
D23*
G36*
X209685197Y-110263244D02*
X209684803Y-110714775D01*
X209857233Y-111132086D01*
X210176235Y-111451645D01*
X210484999Y-111579856D01*
X210484999Y-111611137D01*
X209031136Y-113065000D01*
X207675000Y-113065000D01*
X207675000Y-112972998D01*
X207543252Y-112972998D01*
X207675000Y-112841250D01*
X207675000Y-112773690D01*
X207578327Y-112540301D01*
X207399698Y-112361673D01*
X207166309Y-112265000D01*
X206875750Y-112265000D01*
X206717000Y-112423750D01*
X206717000Y-113000000D01*
X206737000Y-113000000D01*
X206737000Y-113052560D01*
X206443000Y-113052560D01*
X206443000Y-113000000D01*
X206463000Y-113000000D01*
X206463000Y-112423750D01*
X206304250Y-112265000D01*
X206013691Y-112265000D01*
X205780302Y-112361673D01*
X205738340Y-112403634D01*
X205591890Y-112303569D01*
X205340000Y-112252560D01*
X204440000Y-112252560D01*
X204373887Y-112265000D01*
X203753698Y-112265000D01*
X203638439Y-112149540D01*
X203221430Y-111976382D01*
X202769899Y-111975988D01*
X202352588Y-112148418D01*
X202033029Y-112467420D01*
X201977982Y-112599987D01*
X201286621Y-112599987D01*
X200967080Y-112663548D01*
X200717967Y-112830000D01*
X200696187Y-112844553D01*
X200314560Y-113226180D01*
X200314560Y-113038310D01*
X200217887Y-112804921D01*
X200039258Y-112626293D01*
X199805869Y-112529620D01*
X199464930Y-112529620D01*
X199306180Y-112688370D01*
X199306180Y-113538000D01*
X199326180Y-113538000D01*
X199326180Y-113792000D01*
X199306180Y-113792000D01*
X199306180Y-113812000D01*
X199052180Y-113812000D01*
X199052180Y-113792000D01*
X198202550Y-113792000D01*
X198043800Y-113950750D01*
X198043800Y-114291690D01*
X198140473Y-114525079D01*
X198319102Y-114703707D01*
X198552491Y-114800380D01*
X198740360Y-114800380D01*
X197899564Y-115641176D01*
X197718559Y-115912069D01*
X197654998Y-116231610D01*
X197654998Y-118055818D01*
X197718559Y-118375359D01*
X197874380Y-118608561D01*
X197899564Y-118646252D01*
X198031360Y-118778048D01*
X198031360Y-119245380D01*
X198074109Y-119472568D01*
X198038390Y-119508287D01*
X197857385Y-119779180D01*
X197803434Y-120050407D01*
X197486739Y-120181263D01*
X197167180Y-120500265D01*
X196994022Y-120917274D01*
X196993628Y-121368805D01*
X197166058Y-121786116D01*
X197485060Y-122105675D01*
X197902069Y-122278833D01*
X198353600Y-122279227D01*
X198770911Y-122106797D01*
X198886019Y-121991889D01*
X199571310Y-122677180D01*
X198678800Y-122677180D01*
X198443483Y-122721458D01*
X198227359Y-122860530D01*
X198082369Y-123072730D01*
X198031360Y-123324620D01*
X198031360Y-124325380D01*
X198075638Y-124560697D01*
X198214710Y-124776821D01*
X198426910Y-124921811D01*
X198678800Y-124972820D01*
X199679560Y-124972820D01*
X199914877Y-124928542D01*
X200131001Y-124789470D01*
X200219464Y-124660000D01*
X203064811Y-124660000D01*
X203191235Y-124786645D01*
X203608244Y-124959803D01*
X204059775Y-124960197D01*
X204477086Y-124787767D01*
X204796645Y-124468765D01*
X204887673Y-124249546D01*
X206907516Y-126269389D01*
X207178410Y-126450395D01*
X207497950Y-126513955D01*
X212814246Y-126513955D01*
X212940670Y-126640600D01*
X213357679Y-126813758D01*
X213809210Y-126814152D01*
X214185000Y-126658878D01*
X214185000Y-126714250D01*
X214343750Y-126873000D01*
X215668000Y-126873000D01*
X215668000Y-125773750D01*
X215509250Y-125615000D01*
X214719492Y-125615000D01*
X214719632Y-125454180D01*
X214674441Y-125344809D01*
X214743000Y-125276250D01*
X214743000Y-123927000D01*
X213643750Y-123927000D01*
X213485000Y-124085750D01*
X213485000Y-124543867D01*
X213359660Y-124543758D01*
X212942349Y-124716188D01*
X212814359Y-124843955D01*
X207843818Y-124843955D01*
X206511080Y-123511217D01*
X206554225Y-123468148D01*
X206769328Y-123468148D01*
X207063247Y-123762580D01*
X207480256Y-123935738D01*
X207931787Y-123936132D01*
X208349098Y-123763702D01*
X208668657Y-123444700D01*
X208841815Y-123027691D01*
X208842209Y-122576160D01*
X208669779Y-122158849D01*
X208527289Y-122016110D01*
X214231772Y-122016110D01*
X214293292Y-122165000D01*
X213993690Y-122165000D01*
X213760301Y-122261673D01*
X213581673Y-122440302D01*
X213485000Y-122673691D01*
X213485000Y-123514250D01*
X213643750Y-123673000D01*
X214743000Y-123673000D01*
X214743000Y-123653000D01*
X214997000Y-123653000D01*
X214997000Y-123673000D01*
X215017000Y-123673000D01*
X215017000Y-123927000D01*
X214997000Y-123927000D01*
X214997000Y-125276250D01*
X215155750Y-125435000D01*
X215746310Y-125435000D01*
X215979699Y-125338327D01*
X216021660Y-125296366D01*
X216168110Y-125396431D01*
X216420000Y-125447440D01*
X217920000Y-125447440D01*
X218155317Y-125403162D01*
X218321477Y-125296241D01*
X218468110Y-125396431D01*
X218666749Y-125436656D01*
X218666749Y-125602560D01*
X217570000Y-125602560D01*
X217334683Y-125646838D01*
X217170507Y-125752482D01*
X217129698Y-125711673D01*
X216896309Y-125615000D01*
X216080750Y-125615000D01*
X215922000Y-125773750D01*
X215922000Y-126873000D01*
X215942000Y-126873000D01*
X215942000Y-127127000D01*
X215922000Y-127127000D01*
X215922000Y-127147000D01*
X215668000Y-127147000D01*
X215668000Y-127127000D01*
X214343750Y-127127000D01*
X214185000Y-127285750D01*
X214185000Y-127560000D01*
X194056000Y-127560000D01*
X194056000Y-114788490D01*
X194083244Y-114799803D01*
X194534775Y-114800197D01*
X194952086Y-114627767D01*
X195271645Y-114308765D01*
X195444803Y-113891756D01*
X195445197Y-113440225D01*
X195279129Y-113038310D01*
X198043800Y-113038310D01*
X198043800Y-113379250D01*
X198202550Y-113538000D01*
X199052180Y-113538000D01*
X199052180Y-112688370D01*
X198893430Y-112529620D01*
X198552491Y-112529620D01*
X198319102Y-112626293D01*
X198140473Y-112804921D01*
X198043800Y-113038310D01*
X195279129Y-113038310D01*
X195272767Y-113022914D01*
X194953765Y-112703355D01*
X194536756Y-112530197D01*
X194085225Y-112529803D01*
X194056000Y-112541879D01*
X194056000Y-109930000D01*
X209823573Y-109930000D01*
X209685197Y-110263244D01*
X209685197Y-110263244D01*
G37*
X209685197Y-110263244D02*
X209684803Y-110714775D01*
X209857233Y-111132086D01*
X210176235Y-111451645D01*
X210484999Y-111579856D01*
X210484999Y-111611137D01*
X209031136Y-113065000D01*
X207675000Y-113065000D01*
X207675000Y-112972998D01*
X207543252Y-112972998D01*
X207675000Y-112841250D01*
X207675000Y-112773690D01*
X207578327Y-112540301D01*
X207399698Y-112361673D01*
X207166309Y-112265000D01*
X206875750Y-112265000D01*
X206717000Y-112423750D01*
X206717000Y-113000000D01*
X206737000Y-113000000D01*
X206737000Y-113052560D01*
X206443000Y-113052560D01*
X206443000Y-113000000D01*
X206463000Y-113000000D01*
X206463000Y-112423750D01*
X206304250Y-112265000D01*
X206013691Y-112265000D01*
X205780302Y-112361673D01*
X205738340Y-112403634D01*
X205591890Y-112303569D01*
X205340000Y-112252560D01*
X204440000Y-112252560D01*
X204373887Y-112265000D01*
X203753698Y-112265000D01*
X203638439Y-112149540D01*
X203221430Y-111976382D01*
X202769899Y-111975988D01*
X202352588Y-112148418D01*
X202033029Y-112467420D01*
X201977982Y-112599987D01*
X201286621Y-112599987D01*
X200967080Y-112663548D01*
X200717967Y-112830000D01*
X200696187Y-112844553D01*
X200314560Y-113226180D01*
X200314560Y-113038310D01*
X200217887Y-112804921D01*
X200039258Y-112626293D01*
X199805869Y-112529620D01*
X199464930Y-112529620D01*
X199306180Y-112688370D01*
X199306180Y-113538000D01*
X199326180Y-113538000D01*
X199326180Y-113792000D01*
X199306180Y-113792000D01*
X199306180Y-113812000D01*
X199052180Y-113812000D01*
X199052180Y-113792000D01*
X198202550Y-113792000D01*
X198043800Y-113950750D01*
X198043800Y-114291690D01*
X198140473Y-114525079D01*
X198319102Y-114703707D01*
X198552491Y-114800380D01*
X198740360Y-114800380D01*
X197899564Y-115641176D01*
X197718559Y-115912069D01*
X197654998Y-116231610D01*
X197654998Y-118055818D01*
X197718559Y-118375359D01*
X197874380Y-118608561D01*
X197899564Y-118646252D01*
X198031360Y-118778048D01*
X198031360Y-119245380D01*
X198074109Y-119472568D01*
X198038390Y-119508287D01*
X197857385Y-119779180D01*
X197803434Y-120050407D01*
X197486739Y-120181263D01*
X197167180Y-120500265D01*
X196994022Y-120917274D01*
X196993628Y-121368805D01*
X197166058Y-121786116D01*
X197485060Y-122105675D01*
X197902069Y-122278833D01*
X198353600Y-122279227D01*
X198770911Y-122106797D01*
X198886019Y-121991889D01*
X199571310Y-122677180D01*
X198678800Y-122677180D01*
X198443483Y-122721458D01*
X198227359Y-122860530D01*
X198082369Y-123072730D01*
X198031360Y-123324620D01*
X198031360Y-124325380D01*
X198075638Y-124560697D01*
X198214710Y-124776821D01*
X198426910Y-124921811D01*
X198678800Y-124972820D01*
X199679560Y-124972820D01*
X199914877Y-124928542D01*
X200131001Y-124789470D01*
X200219464Y-124660000D01*
X203064811Y-124660000D01*
X203191235Y-124786645D01*
X203608244Y-124959803D01*
X204059775Y-124960197D01*
X204477086Y-124787767D01*
X204796645Y-124468765D01*
X204887673Y-124249546D01*
X206907516Y-126269389D01*
X207178410Y-126450395D01*
X207497950Y-126513955D01*
X212814246Y-126513955D01*
X212940670Y-126640600D01*
X213357679Y-126813758D01*
X213809210Y-126814152D01*
X214185000Y-126658878D01*
X214185000Y-126714250D01*
X214343750Y-126873000D01*
X215668000Y-126873000D01*
X215668000Y-125773750D01*
X215509250Y-125615000D01*
X214719492Y-125615000D01*
X214719632Y-125454180D01*
X214674441Y-125344809D01*
X214743000Y-125276250D01*
X214743000Y-123927000D01*
X213643750Y-123927000D01*
X213485000Y-124085750D01*
X213485000Y-124543867D01*
X213359660Y-124543758D01*
X212942349Y-124716188D01*
X212814359Y-124843955D01*
X207843818Y-124843955D01*
X206511080Y-123511217D01*
X206554225Y-123468148D01*
X206769328Y-123468148D01*
X207063247Y-123762580D01*
X207480256Y-123935738D01*
X207931787Y-123936132D01*
X208349098Y-123763702D01*
X208668657Y-123444700D01*
X208841815Y-123027691D01*
X208842209Y-122576160D01*
X208669779Y-122158849D01*
X208527289Y-122016110D01*
X214231772Y-122016110D01*
X214293292Y-122165000D01*
X213993690Y-122165000D01*
X213760301Y-122261673D01*
X213581673Y-122440302D01*
X213485000Y-122673691D01*
X213485000Y-123514250D01*
X213643750Y-123673000D01*
X214743000Y-123673000D01*
X214743000Y-123653000D01*
X214997000Y-123653000D01*
X214997000Y-123673000D01*
X215017000Y-123673000D01*
X215017000Y-123927000D01*
X214997000Y-123927000D01*
X214997000Y-125276250D01*
X215155750Y-125435000D01*
X215746310Y-125435000D01*
X215979699Y-125338327D01*
X216021660Y-125296366D01*
X216168110Y-125396431D01*
X216420000Y-125447440D01*
X217920000Y-125447440D01*
X218155317Y-125403162D01*
X218321477Y-125296241D01*
X218468110Y-125396431D01*
X218666749Y-125436656D01*
X218666749Y-125602560D01*
X217570000Y-125602560D01*
X217334683Y-125646838D01*
X217170507Y-125752482D01*
X217129698Y-125711673D01*
X216896309Y-125615000D01*
X216080750Y-125615000D01*
X215922000Y-125773750D01*
X215922000Y-126873000D01*
X215942000Y-126873000D01*
X215942000Y-127127000D01*
X215922000Y-127127000D01*
X215922000Y-127147000D01*
X215668000Y-127147000D01*
X215668000Y-127127000D01*
X214343750Y-127127000D01*
X214185000Y-127285750D01*
X214185000Y-127560000D01*
X194056000Y-127560000D01*
X194056000Y-114788490D01*
X194083244Y-114799803D01*
X194534775Y-114800197D01*
X194952086Y-114627767D01*
X195271645Y-114308765D01*
X195444803Y-113891756D01*
X195445197Y-113440225D01*
X195279129Y-113038310D01*
X198043800Y-113038310D01*
X198043800Y-113379250D01*
X198202550Y-113538000D01*
X199052180Y-113538000D01*
X199052180Y-112688370D01*
X198893430Y-112529620D01*
X198552491Y-112529620D01*
X198319102Y-112626293D01*
X198140473Y-112804921D01*
X198043800Y-113038310D01*
X195279129Y-113038310D01*
X195272767Y-113022914D01*
X194953765Y-112703355D01*
X194536756Y-112530197D01*
X194085225Y-112529803D01*
X194056000Y-112541879D01*
X194056000Y-109930000D01*
X209823573Y-109930000D01*
X209685197Y-110263244D01*
G36*
X230557000Y-127560000D02*
X220167440Y-127560000D01*
X220167440Y-126521055D01*
X220172184Y-126513955D01*
X220273188Y-126362792D01*
X220336749Y-126043251D01*
X220336749Y-125425472D01*
X220455317Y-125403162D01*
X220671441Y-125264090D01*
X220816431Y-125051890D01*
X220867440Y-124800000D01*
X220867440Y-124635000D01*
X221912377Y-124635000D01*
X222231918Y-124571439D01*
X222502811Y-124390434D01*
X223503245Y-123390000D01*
X223560593Y-123390000D01*
X223730330Y-123644029D01*
X224216511Y-123968885D01*
X224790000Y-124082959D01*
X225363489Y-123968885D01*
X225849670Y-123644029D01*
X225858805Y-123630358D01*
X225863238Y-123653917D01*
X226002310Y-123870041D01*
X226214510Y-124015031D01*
X226466400Y-124066040D01*
X228193600Y-124066040D01*
X228428917Y-124021762D01*
X228645041Y-123882690D01*
X228790031Y-123670490D01*
X228841040Y-123418600D01*
X228841040Y-121691400D01*
X228796762Y-121456083D01*
X228657690Y-121239959D01*
X228445490Y-121094969D01*
X228401655Y-121086092D01*
X228714526Y-120617848D01*
X228828600Y-120044359D01*
X228828600Y-119985641D01*
X228714526Y-119412152D01*
X228389670Y-118925971D01*
X228118828Y-118745000D01*
X228389670Y-118564029D01*
X228714526Y-118077848D01*
X228828600Y-117504359D01*
X228828600Y-117445641D01*
X228714526Y-116872152D01*
X228389670Y-116385971D01*
X228118828Y-116205000D01*
X228389670Y-116024029D01*
X228714526Y-115537848D01*
X228828600Y-114964359D01*
X228828600Y-114905641D01*
X228714526Y-114332152D01*
X228389670Y-113845971D01*
X227903489Y-113521115D01*
X227330000Y-113407041D01*
X226756511Y-113521115D01*
X226270330Y-113845971D01*
X226060000Y-114160752D01*
X225849670Y-113845971D01*
X225363489Y-113521115D01*
X224790000Y-113407041D01*
X224216511Y-113521115D01*
X223730330Y-113845971D01*
X223560593Y-114100000D01*
X214761678Y-114100000D01*
X214442137Y-114163561D01*
X214227337Y-114307086D01*
X214171244Y-114344566D01*
X212524542Y-115991268D01*
X207609525Y-115991268D01*
X207636431Y-115951890D01*
X207687440Y-115700000D01*
X207687440Y-115300000D01*
X207648426Y-115092658D01*
X207687440Y-114900000D01*
X207687440Y-114735000D01*
X209377004Y-114735000D01*
X209696545Y-114671439D01*
X209967438Y-114490434D01*
X211910433Y-112547439D01*
X211963900Y-112467420D01*
X212091438Y-112276546D01*
X212154999Y-111957005D01*
X212154999Y-111862127D01*
X212280000Y-111887440D01*
X214230000Y-111887440D01*
X214465317Y-111843162D01*
X214629493Y-111737518D01*
X214670302Y-111778327D01*
X214903691Y-111875000D01*
X215719250Y-111875000D01*
X215878000Y-111716250D01*
X215878000Y-110617000D01*
X216132000Y-110617000D01*
X216132000Y-111716250D01*
X216290750Y-111875000D01*
X217106309Y-111875000D01*
X217339698Y-111778327D01*
X217518327Y-111599699D01*
X217615000Y-111366310D01*
X217615000Y-110775750D01*
X217456250Y-110617000D01*
X216132000Y-110617000D01*
X215878000Y-110617000D01*
X215858000Y-110617000D01*
X215858000Y-110363000D01*
X215878000Y-110363000D01*
X215878000Y-110343000D01*
X216132000Y-110343000D01*
X216132000Y-110363000D01*
X217456250Y-110363000D01*
X217615000Y-110204250D01*
X217615000Y-109930000D01*
X230557000Y-109930000D01*
X230557000Y-127560000D01*
X230557000Y-127560000D01*
G37*
X230557000Y-127560000D02*
X220167440Y-127560000D01*
X220167440Y-126521055D01*
X220172184Y-126513955D01*
X220273188Y-126362792D01*
X220336749Y-126043251D01*
X220336749Y-125425472D01*
X220455317Y-125403162D01*
X220671441Y-125264090D01*
X220816431Y-125051890D01*
X220867440Y-124800000D01*
X220867440Y-124635000D01*
X221912377Y-124635000D01*
X222231918Y-124571439D01*
X222502811Y-124390434D01*
X223503245Y-123390000D01*
X223560593Y-123390000D01*
X223730330Y-123644029D01*
X224216511Y-123968885D01*
X224790000Y-124082959D01*
X225363489Y-123968885D01*
X225849670Y-123644029D01*
X225858805Y-123630358D01*
X225863238Y-123653917D01*
X226002310Y-123870041D01*
X226214510Y-124015031D01*
X226466400Y-124066040D01*
X228193600Y-124066040D01*
X228428917Y-124021762D01*
X228645041Y-123882690D01*
X228790031Y-123670490D01*
X228841040Y-123418600D01*
X228841040Y-121691400D01*
X228796762Y-121456083D01*
X228657690Y-121239959D01*
X228445490Y-121094969D01*
X228401655Y-121086092D01*
X228714526Y-120617848D01*
X228828600Y-120044359D01*
X228828600Y-119985641D01*
X228714526Y-119412152D01*
X228389670Y-118925971D01*
X228118828Y-118745000D01*
X228389670Y-118564029D01*
X228714526Y-118077848D01*
X228828600Y-117504359D01*
X228828600Y-117445641D01*
X228714526Y-116872152D01*
X228389670Y-116385971D01*
X228118828Y-116205000D01*
X228389670Y-116024029D01*
X228714526Y-115537848D01*
X228828600Y-114964359D01*
X228828600Y-114905641D01*
X228714526Y-114332152D01*
X228389670Y-113845971D01*
X227903489Y-113521115D01*
X227330000Y-113407041D01*
X226756511Y-113521115D01*
X226270330Y-113845971D01*
X226060000Y-114160752D01*
X225849670Y-113845971D01*
X225363489Y-113521115D01*
X224790000Y-113407041D01*
X224216511Y-113521115D01*
X223730330Y-113845971D01*
X223560593Y-114100000D01*
X214761678Y-114100000D01*
X214442137Y-114163561D01*
X214227337Y-114307086D01*
X214171244Y-114344566D01*
X212524542Y-115991268D01*
X207609525Y-115991268D01*
X207636431Y-115951890D01*
X207687440Y-115700000D01*
X207687440Y-115300000D01*
X207648426Y-115092658D01*
X207687440Y-114900000D01*
X207687440Y-114735000D01*
X209377004Y-114735000D01*
X209696545Y-114671439D01*
X209967438Y-114490434D01*
X211910433Y-112547439D01*
X211963900Y-112467420D01*
X212091438Y-112276546D01*
X212154999Y-111957005D01*
X212154999Y-111862127D01*
X212280000Y-111887440D01*
X214230000Y-111887440D01*
X214465317Y-111843162D01*
X214629493Y-111737518D01*
X214670302Y-111778327D01*
X214903691Y-111875000D01*
X215719250Y-111875000D01*
X215878000Y-111716250D01*
X215878000Y-110617000D01*
X216132000Y-110617000D01*
X216132000Y-111716250D01*
X216290750Y-111875000D01*
X217106309Y-111875000D01*
X217339698Y-111778327D01*
X217518327Y-111599699D01*
X217615000Y-111366310D01*
X217615000Y-110775750D01*
X217456250Y-110617000D01*
X216132000Y-110617000D01*
X215878000Y-110617000D01*
X215858000Y-110617000D01*
X215858000Y-110363000D01*
X215878000Y-110363000D01*
X215878000Y-110343000D01*
X216132000Y-110343000D01*
X216132000Y-110363000D01*
X217456250Y-110363000D01*
X217615000Y-110204250D01*
X217615000Y-109930000D01*
X230557000Y-109930000D01*
X230557000Y-127560000D01*
G36*
X223730330Y-116024029D02*
X224001172Y-116205000D01*
X223730330Y-116385971D01*
X223405474Y-116872152D01*
X223291400Y-117445641D01*
X223291400Y-117504359D01*
X223405474Y-118077848D01*
X223730330Y-118564029D01*
X224001161Y-118744992D01*
X223583179Y-119126510D01*
X223335032Y-119655973D01*
X223455531Y-119888000D01*
X224663000Y-119888000D01*
X224663000Y-119868000D01*
X224917000Y-119868000D01*
X224917000Y-119888000D01*
X224937000Y-119888000D01*
X224937000Y-120142000D01*
X224917000Y-120142000D01*
X224917000Y-120162000D01*
X224663000Y-120162000D01*
X224663000Y-120142000D01*
X223455531Y-120142000D01*
X223335032Y-120374027D01*
X223583179Y-120903490D01*
X224001161Y-121285008D01*
X223730330Y-121465971D01*
X223560593Y-121720000D01*
X223157377Y-121720000D01*
X222837836Y-121783561D01*
X222622032Y-121927757D01*
X222566943Y-121964566D01*
X221566509Y-122965000D01*
X220867440Y-122965000D01*
X220867440Y-122800000D01*
X220823162Y-122564683D01*
X220684090Y-122348559D01*
X220471890Y-122203569D01*
X220305000Y-122169773D01*
X220305000Y-121427825D01*
X220299465Y-121400000D01*
X220241440Y-121108285D01*
X220060434Y-120837391D01*
X218811859Y-119588816D01*
X218721678Y-119528559D01*
X218540966Y-119407811D01*
X218221425Y-119344250D01*
X208682829Y-119344250D01*
X208871655Y-119155753D01*
X209044813Y-118738744D01*
X209045207Y-118287213D01*
X208872777Y-117869902D01*
X208664507Y-117661268D01*
X212870410Y-117661268D01*
X213189951Y-117597707D01*
X213460844Y-117416702D01*
X214768776Y-116108770D01*
X214673569Y-116248110D01*
X214622560Y-116500000D01*
X214622560Y-118500000D01*
X214666838Y-118735317D01*
X214805910Y-118951441D01*
X215018110Y-119096431D01*
X215270000Y-119147440D01*
X219070000Y-119147440D01*
X219305317Y-119103162D01*
X219521441Y-118964090D01*
X219666431Y-118751890D01*
X219717440Y-118500000D01*
X219717440Y-116500000D01*
X219673162Y-116264683D01*
X219534090Y-116048559D01*
X219321890Y-115903569D01*
X219070000Y-115852560D01*
X215270000Y-115852560D01*
X215034683Y-115896838D01*
X214883288Y-115994258D01*
X215107546Y-115770000D01*
X223560593Y-115770000D01*
X223730330Y-116024029D01*
X223730330Y-116024029D01*
G37*
X223730330Y-116024029D02*
X224001172Y-116205000D01*
X223730330Y-116385971D01*
X223405474Y-116872152D01*
X223291400Y-117445641D01*
X223291400Y-117504359D01*
X223405474Y-118077848D01*
X223730330Y-118564029D01*
X224001161Y-118744992D01*
X223583179Y-119126510D01*
X223335032Y-119655973D01*
X223455531Y-119888000D01*
X224663000Y-119888000D01*
X224663000Y-119868000D01*
X224917000Y-119868000D01*
X224917000Y-119888000D01*
X224937000Y-119888000D01*
X224937000Y-120142000D01*
X224917000Y-120142000D01*
X224917000Y-120162000D01*
X224663000Y-120162000D01*
X224663000Y-120142000D01*
X223455531Y-120142000D01*
X223335032Y-120374027D01*
X223583179Y-120903490D01*
X224001161Y-121285008D01*
X223730330Y-121465971D01*
X223560593Y-121720000D01*
X223157377Y-121720000D01*
X222837836Y-121783561D01*
X222622032Y-121927757D01*
X222566943Y-121964566D01*
X221566509Y-122965000D01*
X220867440Y-122965000D01*
X220867440Y-122800000D01*
X220823162Y-122564683D01*
X220684090Y-122348559D01*
X220471890Y-122203569D01*
X220305000Y-122169773D01*
X220305000Y-121427825D01*
X220299465Y-121400000D01*
X220241440Y-121108285D01*
X220060434Y-120837391D01*
X218811859Y-119588816D01*
X218721678Y-119528559D01*
X218540966Y-119407811D01*
X218221425Y-119344250D01*
X208682829Y-119344250D01*
X208871655Y-119155753D01*
X209044813Y-118738744D01*
X209045207Y-118287213D01*
X208872777Y-117869902D01*
X208664507Y-117661268D01*
X212870410Y-117661268D01*
X213189951Y-117597707D01*
X213460844Y-117416702D01*
X214768776Y-116108770D01*
X214673569Y-116248110D01*
X214622560Y-116500000D01*
X214622560Y-118500000D01*
X214666838Y-118735317D01*
X214805910Y-118951441D01*
X215018110Y-119096431D01*
X215270000Y-119147440D01*
X219070000Y-119147440D01*
X219305317Y-119103162D01*
X219521441Y-118964090D01*
X219666431Y-118751890D01*
X219717440Y-118500000D01*
X219717440Y-116500000D01*
X219673162Y-116264683D01*
X219534090Y-116048559D01*
X219321890Y-115903569D01*
X219070000Y-115852560D01*
X215270000Y-115852560D01*
X215034683Y-115896838D01*
X214883288Y-115994258D01*
X215107546Y-115770000D01*
X223560593Y-115770000D01*
X223730330Y-116024029D01*
M02*
