G04 #@! TF.FileFunction,Legend,Top*
%FSLAX46Y46*%
G04 Gerber Fmt 4.6, Leading zero omitted, Abs format (unit mm)*
G04 Created by KiCad (PCBNEW 4.0.7) date Friday, 20 October 2017 'PMt' 14:22:44*
%MOMM*%
%LPD*%
G01*
G04 APERTURE LIST*
%ADD10C,0.100000*%
%ADD11C,0.250000*%
%ADD12C,0.200000*%
%ADD13C,0.120000*%
%ADD14C,0.150000*%
%ADD15C,0.254000*%
%ADD16C,0.010000*%
G04 APERTURE END LIST*
D10*
D11*
X202207000Y-126182500D02*
X202117714Y-126134881D01*
X201974857Y-126134881D01*
X201826047Y-126182500D01*
X201718904Y-126277738D01*
X201659381Y-126372976D01*
X201587952Y-126563452D01*
X201570095Y-126706310D01*
X201593904Y-126896786D01*
X201629619Y-126992024D01*
X201712952Y-127087262D01*
X201849857Y-127134881D01*
X201945095Y-127134881D01*
X202093905Y-127087262D01*
X202147476Y-127039643D01*
X202189143Y-126706310D01*
X201998667Y-126706310D01*
X202564142Y-127134881D02*
X202689142Y-126134881D01*
X203070095Y-126134881D01*
X203159381Y-126182500D01*
X203201048Y-126230119D01*
X203236762Y-126325357D01*
X203218905Y-126468214D01*
X203159381Y-126563452D01*
X203105810Y-126611071D01*
X203004619Y-126658690D01*
X202623666Y-126658690D01*
X204040333Y-127134881D02*
X203564142Y-127134881D01*
X203689142Y-126134881D01*
X204361762Y-126468214D02*
X204516523Y-127134881D01*
X204837953Y-126468214D01*
X205165333Y-126134881D02*
X205784381Y-126134881D01*
X205403428Y-126515833D01*
X205546286Y-126515833D01*
X205635572Y-126563452D01*
X205677239Y-126611071D01*
X205712953Y-126706310D01*
X205683191Y-126944405D01*
X205623667Y-127039643D01*
X205570096Y-127087262D01*
X205468905Y-127134881D01*
X205183190Y-127134881D01*
X205093905Y-127087262D01*
X205052238Y-127039643D01*
D12*
X187261500Y-111188500D02*
G75*
G03X187261500Y-111188500I-127000J0D01*
G01*
X187659907Y-110917883D02*
G75*
G03X186690000Y-110871000I-511221J-519991D01*
G01*
X188045677Y-110664336D02*
G75*
G03X186309000Y-110617000I-896991J-1027538D01*
G01*
X188304378Y-110363000D02*
G75*
G03X186055000Y-110309442I-1155692J-1275316D01*
G01*
X186455286Y-124186905D02*
X186188619Y-123805952D01*
X185998143Y-124186905D02*
X185998143Y-123386905D01*
X186302905Y-123386905D01*
X186379096Y-123425000D01*
X186417191Y-123463095D01*
X186455286Y-123539286D01*
X186455286Y-123653571D01*
X186417191Y-123729762D01*
X186379096Y-123767857D01*
X186302905Y-123805952D01*
X185998143Y-123805952D01*
X186760048Y-124148810D02*
X186874334Y-124186905D01*
X187064810Y-124186905D01*
X187141000Y-124148810D01*
X187179096Y-124110714D01*
X187217191Y-124034524D01*
X187217191Y-123958333D01*
X187179096Y-123882143D01*
X187141000Y-123844048D01*
X187064810Y-123805952D01*
X186912429Y-123767857D01*
X186836238Y-123729762D01*
X186798143Y-123691667D01*
X186760048Y-123615476D01*
X186760048Y-123539286D01*
X186798143Y-123463095D01*
X186836238Y-123425000D01*
X186912429Y-123386905D01*
X187102905Y-123386905D01*
X187217191Y-123425000D01*
X187445762Y-123386905D02*
X187902905Y-123386905D01*
X187674334Y-124186905D02*
X187674334Y-123386905D01*
X189236239Y-124110714D02*
X189198144Y-124148810D01*
X189083858Y-124186905D01*
X189007668Y-124186905D01*
X188893382Y-124148810D01*
X188817191Y-124072619D01*
X188779096Y-123996429D01*
X188741001Y-123844048D01*
X188741001Y-123729762D01*
X188779096Y-123577381D01*
X188817191Y-123501190D01*
X188893382Y-123425000D01*
X189007668Y-123386905D01*
X189083858Y-123386905D01*
X189198144Y-123425000D01*
X189236239Y-123463095D01*
X189845763Y-123767857D02*
X189579096Y-123767857D01*
X189579096Y-124186905D02*
X189579096Y-123386905D01*
X189960049Y-123386905D01*
X190683858Y-123425000D02*
X190607667Y-123386905D01*
X190493382Y-123386905D01*
X190379096Y-123425000D01*
X190302905Y-123501190D01*
X190264810Y-123577381D01*
X190226715Y-123729762D01*
X190226715Y-123844048D01*
X190264810Y-123996429D01*
X190302905Y-124072619D01*
X190379096Y-124148810D01*
X190493382Y-124186905D01*
X190569572Y-124186905D01*
X190683858Y-124148810D01*
X190721953Y-124110714D01*
X190721953Y-123844048D01*
X190569572Y-123844048D01*
X187039429Y-119106905D02*
X187039429Y-118306905D01*
X187344191Y-118306905D01*
X187420382Y-118345000D01*
X187458477Y-118383095D01*
X187496572Y-118459286D01*
X187496572Y-118573571D01*
X187458477Y-118649762D01*
X187420382Y-118687857D01*
X187344191Y-118725952D01*
X187039429Y-118725952D01*
X188296572Y-119106905D02*
X188029905Y-118725952D01*
X187839429Y-119106905D02*
X187839429Y-118306905D01*
X188144191Y-118306905D01*
X188220382Y-118345000D01*
X188258477Y-118383095D01*
X188296572Y-118459286D01*
X188296572Y-118573571D01*
X188258477Y-118649762D01*
X188220382Y-118687857D01*
X188144191Y-118725952D01*
X187839429Y-118725952D01*
X188791810Y-118306905D02*
X188944191Y-118306905D01*
X189020382Y-118345000D01*
X189096572Y-118421190D01*
X189134667Y-118573571D01*
X189134667Y-118840238D01*
X189096572Y-118992619D01*
X189020382Y-119068810D01*
X188944191Y-119106905D01*
X188791810Y-119106905D01*
X188715620Y-119068810D01*
X188639429Y-118992619D01*
X188601334Y-118840238D01*
X188601334Y-118573571D01*
X188639429Y-118421190D01*
X188715620Y-118345000D01*
X188791810Y-118306905D01*
X189896572Y-118345000D02*
X189820381Y-118306905D01*
X189706096Y-118306905D01*
X189591810Y-118345000D01*
X189515619Y-118421190D01*
X189477524Y-118497381D01*
X189439429Y-118649762D01*
X189439429Y-118764048D01*
X189477524Y-118916429D01*
X189515619Y-118992619D01*
X189591810Y-119068810D01*
X189706096Y-119106905D01*
X189782286Y-119106905D01*
X189896572Y-119068810D01*
X189934667Y-119030714D01*
X189934667Y-118764048D01*
X189782286Y-118764048D01*
X187306095Y-114026905D02*
X187039428Y-113645952D01*
X186848952Y-114026905D02*
X186848952Y-113226905D01*
X187153714Y-113226905D01*
X187229905Y-113265000D01*
X187268000Y-113303095D01*
X187306095Y-113379286D01*
X187306095Y-113493571D01*
X187268000Y-113569762D01*
X187229905Y-113607857D01*
X187153714Y-113645952D01*
X186848952Y-113645952D01*
X187648952Y-113607857D02*
X187915619Y-113607857D01*
X188029905Y-114026905D02*
X187648952Y-114026905D01*
X187648952Y-113226905D01*
X188029905Y-113226905D01*
X188334667Y-113988810D02*
X188448953Y-114026905D01*
X188639429Y-114026905D01*
X188715619Y-113988810D01*
X188753715Y-113950714D01*
X188791810Y-113874524D01*
X188791810Y-113798333D01*
X188753715Y-113722143D01*
X188715619Y-113684048D01*
X188639429Y-113645952D01*
X188487048Y-113607857D01*
X188410857Y-113569762D01*
X188372762Y-113531667D01*
X188334667Y-113455476D01*
X188334667Y-113379286D01*
X188372762Y-113303095D01*
X188410857Y-113265000D01*
X188487048Y-113226905D01*
X188677524Y-113226905D01*
X188791810Y-113265000D01*
X189134667Y-113607857D02*
X189401334Y-113607857D01*
X189515620Y-114026905D02*
X189134667Y-114026905D01*
X189134667Y-113226905D01*
X189515620Y-113226905D01*
X189744191Y-113226905D02*
X190201334Y-113226905D01*
X189972763Y-114026905D02*
X189972763Y-113226905D01*
D13*
X219820000Y-128050000D02*
X215570000Y-128050000D01*
X219820000Y-125950000D02*
X215570000Y-125950000D01*
X219820000Y-128050000D02*
X219820000Y-125950000D01*
X211980000Y-109440000D02*
X216230000Y-109440000D01*
X211980000Y-111540000D02*
X216230000Y-111540000D01*
X211980000Y-109440000D02*
X211980000Y-111540000D01*
X203510000Y-116080000D02*
X202580000Y-116080000D01*
X200350000Y-116080000D02*
X201280000Y-116080000D01*
X200350000Y-116080000D02*
X200350000Y-118240000D01*
X203510000Y-116080000D02*
X203510000Y-117540000D01*
X201170000Y-119705000D02*
X201170000Y-120635000D01*
X201170000Y-122865000D02*
X201170000Y-121935000D01*
X201170000Y-122865000D02*
X203330000Y-122865000D01*
X201170000Y-119705000D02*
X202630000Y-119705000D01*
D14*
X205340000Y-112675000D02*
X206140000Y-112675000D01*
X205340000Y-115925000D02*
X206140000Y-115925000D01*
X205720000Y-121405000D02*
X204920000Y-121405000D01*
X205720000Y-118155000D02*
X204920000Y-118155000D01*
D13*
X220580000Y-118740000D02*
X219320000Y-118740000D01*
X213760000Y-118740000D02*
X215020000Y-118740000D01*
X220580000Y-122500000D02*
X220580000Y-118740000D01*
X213760000Y-124750000D02*
X213760000Y-118740000D01*
D15*
X194279520Y-114366040D02*
X192979040Y-115064540D01*
X194279520Y-112963960D02*
X192979040Y-112265460D01*
X196880480Y-112963960D02*
X198180960Y-112265460D01*
X198180960Y-115064540D02*
X196880480Y-114366040D01*
X198180960Y-115064540D02*
X192979040Y-115064540D01*
X192979040Y-115064540D02*
X192979040Y-112265460D01*
X192979040Y-112265460D02*
X198180960Y-112265460D01*
X198180960Y-112265460D02*
X198180960Y-115064540D01*
X196880480Y-114366040D02*
X194279520Y-114366040D01*
X194279520Y-114366040D02*
X194279520Y-112963960D01*
X194279520Y-112963960D02*
X196880480Y-112963960D01*
X196880480Y-112963960D02*
X196880480Y-114366040D01*
X198579740Y-115465860D02*
X192580260Y-115465860D01*
X192580260Y-115465860D02*
X192580260Y-111864140D01*
X192580260Y-111864140D02*
X198579740Y-111864140D01*
X198579740Y-111864140D02*
X198579740Y-115465860D01*
X194279520Y-119446040D02*
X192979040Y-120144540D01*
X194279520Y-118043960D02*
X192979040Y-117345460D01*
X196880480Y-118043960D02*
X198180960Y-117345460D01*
X198180960Y-120144540D02*
X196880480Y-119446040D01*
X198180960Y-120144540D02*
X192979040Y-120144540D01*
X192979040Y-120144540D02*
X192979040Y-117345460D01*
X192979040Y-117345460D02*
X198180960Y-117345460D01*
X198180960Y-117345460D02*
X198180960Y-120144540D01*
X196880480Y-119446040D02*
X194279520Y-119446040D01*
X194279520Y-119446040D02*
X194279520Y-118043960D01*
X194279520Y-118043960D02*
X196880480Y-118043960D01*
X196880480Y-118043960D02*
X196880480Y-119446040D01*
X198579740Y-120545860D02*
X192580260Y-120545860D01*
X192580260Y-120545860D02*
X192580260Y-116944140D01*
X192580260Y-116944140D02*
X198579740Y-116944140D01*
X198579740Y-116944140D02*
X198579740Y-120545860D01*
X194279520Y-124526040D02*
X192979040Y-125224540D01*
X194279520Y-123123960D02*
X192979040Y-122425460D01*
X196880480Y-123123960D02*
X198180960Y-122425460D01*
X198180960Y-125224540D02*
X196880480Y-124526040D01*
X198180960Y-125224540D02*
X192979040Y-125224540D01*
X192979040Y-125224540D02*
X192979040Y-122425460D01*
X192979040Y-122425460D02*
X198180960Y-122425460D01*
X198180960Y-122425460D02*
X198180960Y-125224540D01*
X196880480Y-124526040D02*
X194279520Y-124526040D01*
X194279520Y-124526040D02*
X194279520Y-123123960D01*
X194279520Y-123123960D02*
X196880480Y-123123960D01*
X196880480Y-123123960D02*
X196880480Y-124526040D01*
X198579740Y-125625860D02*
X192580260Y-125625860D01*
X192580260Y-125625860D02*
X192580260Y-122024140D01*
X192580260Y-122024140D02*
X198579740Y-122024140D01*
X198579740Y-122024140D02*
X198579740Y-125625860D01*
D13*
X221260000Y-127885000D02*
X221260000Y-109605000D01*
X221260000Y-109605000D02*
X230860000Y-109605000D01*
X230860000Y-109605000D02*
X230860000Y-127885000D01*
X230860000Y-127885000D02*
X221260000Y-127885000D01*
D16*
G36*
X208165744Y-126506918D02*
X208221201Y-126534568D01*
X208270148Y-126585480D01*
X208283629Y-126604338D01*
X208298314Y-126629015D01*
X208307842Y-126655816D01*
X208313293Y-126691587D01*
X208315747Y-126743169D01*
X208316286Y-126811267D01*
X208313852Y-126904588D01*
X208305394Y-126974657D01*
X208289174Y-127026931D01*
X208263454Y-127066869D01*
X208226497Y-127099929D01*
X208223782Y-127101886D01*
X208187360Y-127121908D01*
X208143502Y-127131815D01*
X208087724Y-127134257D01*
X207997048Y-127134257D01*
X207997010Y-127222283D01*
X207996166Y-127271308D01*
X207991024Y-127300065D01*
X207977587Y-127317311D01*
X207951858Y-127331808D01*
X207945679Y-127334769D01*
X207916764Y-127348648D01*
X207894376Y-127357414D01*
X207877729Y-127358171D01*
X207866036Y-127348023D01*
X207858510Y-127324073D01*
X207854366Y-127283426D01*
X207852815Y-127223186D01*
X207853071Y-127140455D01*
X207854349Y-127032339D01*
X207854748Y-127000000D01*
X207856185Y-126888524D01*
X207857472Y-126815603D01*
X207996971Y-126815603D01*
X207997755Y-126877499D01*
X208001240Y-126917997D01*
X208009124Y-126944708D01*
X208023105Y-126965244D01*
X208032597Y-126975260D01*
X208071404Y-127004567D01*
X208105763Y-127006952D01*
X208141216Y-126982750D01*
X208142114Y-126981857D01*
X208156539Y-126963153D01*
X208165313Y-126937732D01*
X208169739Y-126898584D01*
X208171118Y-126838697D01*
X208171143Y-126825430D01*
X208167812Y-126742901D01*
X208156969Y-126685691D01*
X208137340Y-126650766D01*
X208107650Y-126635094D01*
X208090491Y-126633514D01*
X208049766Y-126640926D01*
X208021832Y-126665330D01*
X208005017Y-126709980D01*
X207997650Y-126778130D01*
X207996971Y-126815603D01*
X207857472Y-126815603D01*
X207857708Y-126802245D01*
X207859677Y-126737333D01*
X207862450Y-126689958D01*
X207866388Y-126656290D01*
X207871849Y-126632498D01*
X207879192Y-126614753D01*
X207888777Y-126599224D01*
X207892887Y-126593381D01*
X207947405Y-126538185D01*
X208016336Y-126506890D01*
X208096072Y-126498165D01*
X208165744Y-126506918D01*
X208165744Y-126506918D01*
G37*
X208165744Y-126506918D02*
X208221201Y-126534568D01*
X208270148Y-126585480D01*
X208283629Y-126604338D01*
X208298314Y-126629015D01*
X208307842Y-126655816D01*
X208313293Y-126691587D01*
X208315747Y-126743169D01*
X208316286Y-126811267D01*
X208313852Y-126904588D01*
X208305394Y-126974657D01*
X208289174Y-127026931D01*
X208263454Y-127066869D01*
X208226497Y-127099929D01*
X208223782Y-127101886D01*
X208187360Y-127121908D01*
X208143502Y-127131815D01*
X208087724Y-127134257D01*
X207997048Y-127134257D01*
X207997010Y-127222283D01*
X207996166Y-127271308D01*
X207991024Y-127300065D01*
X207977587Y-127317311D01*
X207951858Y-127331808D01*
X207945679Y-127334769D01*
X207916764Y-127348648D01*
X207894376Y-127357414D01*
X207877729Y-127358171D01*
X207866036Y-127348023D01*
X207858510Y-127324073D01*
X207854366Y-127283426D01*
X207852815Y-127223186D01*
X207853071Y-127140455D01*
X207854349Y-127032339D01*
X207854748Y-127000000D01*
X207856185Y-126888524D01*
X207857472Y-126815603D01*
X207996971Y-126815603D01*
X207997755Y-126877499D01*
X208001240Y-126917997D01*
X208009124Y-126944708D01*
X208023105Y-126965244D01*
X208032597Y-126975260D01*
X208071404Y-127004567D01*
X208105763Y-127006952D01*
X208141216Y-126982750D01*
X208142114Y-126981857D01*
X208156539Y-126963153D01*
X208165313Y-126937732D01*
X208169739Y-126898584D01*
X208171118Y-126838697D01*
X208171143Y-126825430D01*
X208167812Y-126742901D01*
X208156969Y-126685691D01*
X208137340Y-126650766D01*
X208107650Y-126635094D01*
X208090491Y-126633514D01*
X208049766Y-126640926D01*
X208021832Y-126665330D01*
X208005017Y-126709980D01*
X207997650Y-126778130D01*
X207996971Y-126815603D01*
X207857472Y-126815603D01*
X207857708Y-126802245D01*
X207859677Y-126737333D01*
X207862450Y-126689958D01*
X207866388Y-126656290D01*
X207871849Y-126632498D01*
X207879192Y-126614753D01*
X207888777Y-126599224D01*
X207892887Y-126593381D01*
X207947405Y-126538185D01*
X208016336Y-126506890D01*
X208096072Y-126498165D01*
X208165744Y-126506918D01*
G36*
X209282093Y-126514780D02*
X209328672Y-126541723D01*
X209361057Y-126568466D01*
X209384742Y-126596484D01*
X209401059Y-126630748D01*
X209411339Y-126676227D01*
X209416914Y-126737892D01*
X209419116Y-126820711D01*
X209419371Y-126880246D01*
X209419371Y-127099391D01*
X209357686Y-127127044D01*
X209296000Y-127154697D01*
X209288743Y-126914670D01*
X209285744Y-126825028D01*
X209282598Y-126759962D01*
X209278701Y-126715026D01*
X209273447Y-126685770D01*
X209266231Y-126667748D01*
X209256450Y-126656511D01*
X209253312Y-126654079D01*
X209205761Y-126635083D01*
X209157697Y-126642600D01*
X209129086Y-126662543D01*
X209117447Y-126676675D01*
X209109391Y-126695220D01*
X209104271Y-126723334D01*
X209101441Y-126766173D01*
X209100256Y-126828895D01*
X209100057Y-126894261D01*
X209100018Y-126976268D01*
X209098614Y-127034316D01*
X209093914Y-127073465D01*
X209083987Y-127098780D01*
X209066903Y-127115323D01*
X209040732Y-127128156D01*
X209005775Y-127141491D01*
X208967596Y-127156007D01*
X208972141Y-126898389D01*
X208973971Y-126805519D01*
X208976112Y-126736889D01*
X208979181Y-126687711D01*
X208983794Y-126653198D01*
X208990568Y-126628562D01*
X209000119Y-126609016D01*
X209011634Y-126591770D01*
X209067190Y-126536680D01*
X209134980Y-126504822D01*
X209208713Y-126497191D01*
X209282093Y-126514780D01*
X209282093Y-126514780D01*
G37*
X209282093Y-126514780D02*
X209328672Y-126541723D01*
X209361057Y-126568466D01*
X209384742Y-126596484D01*
X209401059Y-126630748D01*
X209411339Y-126676227D01*
X209416914Y-126737892D01*
X209419116Y-126820711D01*
X209419371Y-126880246D01*
X209419371Y-127099391D01*
X209357686Y-127127044D01*
X209296000Y-127154697D01*
X209288743Y-126914670D01*
X209285744Y-126825028D01*
X209282598Y-126759962D01*
X209278701Y-126715026D01*
X209273447Y-126685770D01*
X209266231Y-126667748D01*
X209256450Y-126656511D01*
X209253312Y-126654079D01*
X209205761Y-126635083D01*
X209157697Y-126642600D01*
X209129086Y-126662543D01*
X209117447Y-126676675D01*
X209109391Y-126695220D01*
X209104271Y-126723334D01*
X209101441Y-126766173D01*
X209100256Y-126828895D01*
X209100057Y-126894261D01*
X209100018Y-126976268D01*
X209098614Y-127034316D01*
X209093914Y-127073465D01*
X209083987Y-127098780D01*
X209066903Y-127115323D01*
X209040732Y-127128156D01*
X209005775Y-127141491D01*
X208967596Y-127156007D01*
X208972141Y-126898389D01*
X208973971Y-126805519D01*
X208976112Y-126736889D01*
X208979181Y-126687711D01*
X208983794Y-126653198D01*
X208990568Y-126628562D01*
X209000119Y-126609016D01*
X209011634Y-126591770D01*
X209067190Y-126536680D01*
X209134980Y-126504822D01*
X209208713Y-126497191D01*
X209282093Y-126514780D01*
G36*
X207607115Y-126508962D02*
X207675145Y-126544733D01*
X207725351Y-126602301D01*
X207743185Y-126639312D01*
X207757063Y-126694882D01*
X207764167Y-126765096D01*
X207764840Y-126841727D01*
X207759427Y-126916552D01*
X207748270Y-126981342D01*
X207731714Y-127027873D01*
X207726626Y-127035887D01*
X207666355Y-127095707D01*
X207594769Y-127131535D01*
X207517092Y-127142020D01*
X207438548Y-127125810D01*
X207416689Y-127116092D01*
X207374122Y-127086143D01*
X207336763Y-127046433D01*
X207333232Y-127041397D01*
X207318881Y-127017124D01*
X207309394Y-126991178D01*
X207303790Y-126957022D01*
X207301086Y-126908119D01*
X207300299Y-126837935D01*
X207300286Y-126822200D01*
X207300322Y-126817192D01*
X207445429Y-126817192D01*
X207446273Y-126883430D01*
X207449596Y-126927386D01*
X207456583Y-126955779D01*
X207468416Y-126975325D01*
X207474457Y-126981857D01*
X207509186Y-127006680D01*
X207542903Y-127005548D01*
X207576995Y-126984016D01*
X207597329Y-126961029D01*
X207609371Y-126927478D01*
X207616134Y-126874569D01*
X207616598Y-126868399D01*
X207617752Y-126772513D01*
X207605688Y-126701299D01*
X207580570Y-126655194D01*
X207542560Y-126634635D01*
X207528992Y-126633514D01*
X207493364Y-126639152D01*
X207468994Y-126658686D01*
X207454093Y-126696042D01*
X207446875Y-126755150D01*
X207445429Y-126817192D01*
X207300322Y-126817192D01*
X207300826Y-126747413D01*
X207303096Y-126695159D01*
X207308068Y-126658949D01*
X207316713Y-126632299D01*
X207330005Y-126608722D01*
X207332943Y-126604338D01*
X207382313Y-126545249D01*
X207436109Y-126510947D01*
X207501602Y-126497331D01*
X207523842Y-126496665D01*
X207607115Y-126508962D01*
X207607115Y-126508962D01*
G37*
X207607115Y-126508962D02*
X207675145Y-126544733D01*
X207725351Y-126602301D01*
X207743185Y-126639312D01*
X207757063Y-126694882D01*
X207764167Y-126765096D01*
X207764840Y-126841727D01*
X207759427Y-126916552D01*
X207748270Y-126981342D01*
X207731714Y-127027873D01*
X207726626Y-127035887D01*
X207666355Y-127095707D01*
X207594769Y-127131535D01*
X207517092Y-127142020D01*
X207438548Y-127125810D01*
X207416689Y-127116092D01*
X207374122Y-127086143D01*
X207336763Y-127046433D01*
X207333232Y-127041397D01*
X207318881Y-127017124D01*
X207309394Y-126991178D01*
X207303790Y-126957022D01*
X207301086Y-126908119D01*
X207300299Y-126837935D01*
X207300286Y-126822200D01*
X207300322Y-126817192D01*
X207445429Y-126817192D01*
X207446273Y-126883430D01*
X207449596Y-126927386D01*
X207456583Y-126955779D01*
X207468416Y-126975325D01*
X207474457Y-126981857D01*
X207509186Y-127006680D01*
X207542903Y-127005548D01*
X207576995Y-126984016D01*
X207597329Y-126961029D01*
X207609371Y-126927478D01*
X207616134Y-126874569D01*
X207616598Y-126868399D01*
X207617752Y-126772513D01*
X207605688Y-126701299D01*
X207580570Y-126655194D01*
X207542560Y-126634635D01*
X207528992Y-126633514D01*
X207493364Y-126639152D01*
X207468994Y-126658686D01*
X207454093Y-126696042D01*
X207446875Y-126755150D01*
X207445429Y-126817192D01*
X207300322Y-126817192D01*
X207300826Y-126747413D01*
X207303096Y-126695159D01*
X207308068Y-126658949D01*
X207316713Y-126632299D01*
X207330005Y-126608722D01*
X207332943Y-126604338D01*
X207382313Y-126545249D01*
X207436109Y-126510947D01*
X207501602Y-126497331D01*
X207523842Y-126496665D01*
X207607115Y-126508962D01*
G36*
X208734303Y-126518239D02*
X208791527Y-126556735D01*
X208835749Y-126612335D01*
X208862167Y-126683086D01*
X208867510Y-126735162D01*
X208866903Y-126756893D01*
X208861822Y-126773531D01*
X208847855Y-126788437D01*
X208820589Y-126804973D01*
X208775612Y-126826498D01*
X208708511Y-126856374D01*
X208708171Y-126856524D01*
X208646407Y-126884813D01*
X208595759Y-126909933D01*
X208561404Y-126929179D01*
X208548518Y-126939848D01*
X208548514Y-126939934D01*
X208559872Y-126963166D01*
X208586431Y-126988774D01*
X208616923Y-127007221D01*
X208632370Y-127010886D01*
X208674515Y-126998212D01*
X208710808Y-126966471D01*
X208728517Y-126931572D01*
X208745552Y-126905845D01*
X208778922Y-126876546D01*
X208818149Y-126851235D01*
X208852756Y-126837471D01*
X208859993Y-126836714D01*
X208868139Y-126849160D01*
X208868630Y-126880972D01*
X208862643Y-126923866D01*
X208851357Y-126969558D01*
X208835950Y-127009761D01*
X208835171Y-127011322D01*
X208788804Y-127076062D01*
X208728711Y-127120097D01*
X208660465Y-127141711D01*
X208589638Y-127139185D01*
X208521804Y-127110804D01*
X208518788Y-127108808D01*
X208465427Y-127060448D01*
X208430340Y-126997352D01*
X208410922Y-126914387D01*
X208408316Y-126891078D01*
X208403701Y-126781055D01*
X208409233Y-126729748D01*
X208548514Y-126729748D01*
X208550324Y-126761753D01*
X208560222Y-126771093D01*
X208584898Y-126764105D01*
X208623795Y-126747587D01*
X208667275Y-126726881D01*
X208668356Y-126726333D01*
X208705209Y-126706949D01*
X208720000Y-126694013D01*
X208716353Y-126680451D01*
X208700995Y-126662632D01*
X208661923Y-126636845D01*
X208619846Y-126634950D01*
X208582103Y-126653717D01*
X208556034Y-126689915D01*
X208548514Y-126729748D01*
X208409233Y-126729748D01*
X208413194Y-126693027D01*
X208437550Y-126623212D01*
X208471456Y-126574302D01*
X208532653Y-126524878D01*
X208600063Y-126500359D01*
X208668880Y-126498797D01*
X208734303Y-126518239D01*
X208734303Y-126518239D01*
G37*
X208734303Y-126518239D02*
X208791527Y-126556735D01*
X208835749Y-126612335D01*
X208862167Y-126683086D01*
X208867510Y-126735162D01*
X208866903Y-126756893D01*
X208861822Y-126773531D01*
X208847855Y-126788437D01*
X208820589Y-126804973D01*
X208775612Y-126826498D01*
X208708511Y-126856374D01*
X208708171Y-126856524D01*
X208646407Y-126884813D01*
X208595759Y-126909933D01*
X208561404Y-126929179D01*
X208548518Y-126939848D01*
X208548514Y-126939934D01*
X208559872Y-126963166D01*
X208586431Y-126988774D01*
X208616923Y-127007221D01*
X208632370Y-127010886D01*
X208674515Y-126998212D01*
X208710808Y-126966471D01*
X208728517Y-126931572D01*
X208745552Y-126905845D01*
X208778922Y-126876546D01*
X208818149Y-126851235D01*
X208852756Y-126837471D01*
X208859993Y-126836714D01*
X208868139Y-126849160D01*
X208868630Y-126880972D01*
X208862643Y-126923866D01*
X208851357Y-126969558D01*
X208835950Y-127009761D01*
X208835171Y-127011322D01*
X208788804Y-127076062D01*
X208728711Y-127120097D01*
X208660465Y-127141711D01*
X208589638Y-127139185D01*
X208521804Y-127110804D01*
X208518788Y-127108808D01*
X208465427Y-127060448D01*
X208430340Y-126997352D01*
X208410922Y-126914387D01*
X208408316Y-126891078D01*
X208403701Y-126781055D01*
X208409233Y-126729748D01*
X208548514Y-126729748D01*
X208550324Y-126761753D01*
X208560222Y-126771093D01*
X208584898Y-126764105D01*
X208623795Y-126747587D01*
X208667275Y-126726881D01*
X208668356Y-126726333D01*
X208705209Y-126706949D01*
X208720000Y-126694013D01*
X208716353Y-126680451D01*
X208700995Y-126662632D01*
X208661923Y-126636845D01*
X208619846Y-126634950D01*
X208582103Y-126653717D01*
X208556034Y-126689915D01*
X208548514Y-126729748D01*
X208409233Y-126729748D01*
X208413194Y-126693027D01*
X208437550Y-126623212D01*
X208471456Y-126574302D01*
X208532653Y-126524878D01*
X208600063Y-126500359D01*
X208668880Y-126498797D01*
X208734303Y-126518239D01*
G36*
X209941886Y-126438289D02*
X209946139Y-126497613D01*
X209951025Y-126532572D01*
X209957795Y-126547820D01*
X209967702Y-126548015D01*
X209970914Y-126546195D01*
X210013644Y-126533015D01*
X210069227Y-126533785D01*
X210125737Y-126547333D01*
X210161082Y-126564861D01*
X210197321Y-126592861D01*
X210223813Y-126624549D01*
X210241999Y-126664813D01*
X210253322Y-126718543D01*
X210259222Y-126790626D01*
X210261143Y-126885951D01*
X210261177Y-126904237D01*
X210261200Y-127109646D01*
X210215491Y-127125580D01*
X210183027Y-127136420D01*
X210165215Y-127141468D01*
X210164691Y-127141514D01*
X210162937Y-127127828D01*
X210161444Y-127090076D01*
X210160326Y-127033224D01*
X210159697Y-126962234D01*
X210159600Y-126919073D01*
X210159398Y-126833973D01*
X210158358Y-126772981D01*
X210155831Y-126731177D01*
X210151164Y-126703642D01*
X210143707Y-126685456D01*
X210132811Y-126671698D01*
X210126007Y-126665073D01*
X210079272Y-126638375D01*
X210028272Y-126636375D01*
X209982001Y-126658955D01*
X209973444Y-126667107D01*
X209960893Y-126682436D01*
X209952188Y-126700618D01*
X209946631Y-126726909D01*
X209943526Y-126766562D01*
X209942176Y-126824832D01*
X209941886Y-126905173D01*
X209941886Y-127109646D01*
X209896177Y-127125580D01*
X209863713Y-127136420D01*
X209845901Y-127141468D01*
X209845377Y-127141514D01*
X209844037Y-127127623D01*
X209842828Y-127088439D01*
X209841801Y-127027700D01*
X209841002Y-126949141D01*
X209840481Y-126856498D01*
X209840286Y-126753509D01*
X209840286Y-126356342D01*
X209887457Y-126336444D01*
X209934629Y-126316547D01*
X209941886Y-126438289D01*
X209941886Y-126438289D01*
G37*
X209941886Y-126438289D02*
X209946139Y-126497613D01*
X209951025Y-126532572D01*
X209957795Y-126547820D01*
X209967702Y-126548015D01*
X209970914Y-126546195D01*
X210013644Y-126533015D01*
X210069227Y-126533785D01*
X210125737Y-126547333D01*
X210161082Y-126564861D01*
X210197321Y-126592861D01*
X210223813Y-126624549D01*
X210241999Y-126664813D01*
X210253322Y-126718543D01*
X210259222Y-126790626D01*
X210261143Y-126885951D01*
X210261177Y-126904237D01*
X210261200Y-127109646D01*
X210215491Y-127125580D01*
X210183027Y-127136420D01*
X210165215Y-127141468D01*
X210164691Y-127141514D01*
X210162937Y-127127828D01*
X210161444Y-127090076D01*
X210160326Y-127033224D01*
X210159697Y-126962234D01*
X210159600Y-126919073D01*
X210159398Y-126833973D01*
X210158358Y-126772981D01*
X210155831Y-126731177D01*
X210151164Y-126703642D01*
X210143707Y-126685456D01*
X210132811Y-126671698D01*
X210126007Y-126665073D01*
X210079272Y-126638375D01*
X210028272Y-126636375D01*
X209982001Y-126658955D01*
X209973444Y-126667107D01*
X209960893Y-126682436D01*
X209952188Y-126700618D01*
X209946631Y-126726909D01*
X209943526Y-126766562D01*
X209942176Y-126824832D01*
X209941886Y-126905173D01*
X209941886Y-127109646D01*
X209896177Y-127125580D01*
X209863713Y-127136420D01*
X209845901Y-127141468D01*
X209845377Y-127141514D01*
X209844037Y-127127623D01*
X209842828Y-127088439D01*
X209841801Y-127027700D01*
X209841002Y-126949141D01*
X209840481Y-126856498D01*
X209840286Y-126753509D01*
X209840286Y-126356342D01*
X209887457Y-126336444D01*
X209934629Y-126316547D01*
X209941886Y-126438289D01*
G36*
X210605744Y-126537968D02*
X210662616Y-126559087D01*
X210663267Y-126559493D01*
X210698440Y-126585380D01*
X210724407Y-126615633D01*
X210742670Y-126655058D01*
X210754732Y-126708462D01*
X210762096Y-126780651D01*
X210766264Y-126876432D01*
X210766629Y-126890078D01*
X210771876Y-127095842D01*
X210727716Y-127118678D01*
X210695763Y-127134110D01*
X210676470Y-127141423D01*
X210675578Y-127141514D01*
X210672239Y-127128022D01*
X210669587Y-127091626D01*
X210667956Y-127038452D01*
X210667600Y-126995393D01*
X210667592Y-126925641D01*
X210664403Y-126881837D01*
X210653288Y-126860944D01*
X210629501Y-126859925D01*
X210588296Y-126875741D01*
X210526086Y-126904815D01*
X210480341Y-126928963D01*
X210456813Y-126949913D01*
X210449896Y-126972747D01*
X210449886Y-126973877D01*
X210461299Y-127013212D01*
X210495092Y-127034462D01*
X210546809Y-127037539D01*
X210584061Y-127037006D01*
X210603703Y-127047735D01*
X210615952Y-127073505D01*
X210623002Y-127106337D01*
X210612842Y-127124966D01*
X210609017Y-127127632D01*
X210573001Y-127138340D01*
X210522566Y-127139856D01*
X210470626Y-127132759D01*
X210433822Y-127119788D01*
X210382938Y-127076585D01*
X210354014Y-127016446D01*
X210348286Y-126969462D01*
X210352657Y-126927082D01*
X210368475Y-126892488D01*
X210399797Y-126861763D01*
X210450678Y-126830990D01*
X210525176Y-126796252D01*
X210529714Y-126794288D01*
X210596821Y-126763287D01*
X210638232Y-126737862D01*
X210655981Y-126715014D01*
X210652107Y-126691745D01*
X210628643Y-126665056D01*
X210621627Y-126658914D01*
X210574630Y-126635100D01*
X210525933Y-126636103D01*
X210483522Y-126659451D01*
X210455384Y-126702675D01*
X210452769Y-126711160D01*
X210427308Y-126752308D01*
X210395001Y-126772128D01*
X210348286Y-126791770D01*
X210348286Y-126740950D01*
X210362496Y-126667082D01*
X210404675Y-126599327D01*
X210426624Y-126576661D01*
X210476517Y-126547569D01*
X210539967Y-126534400D01*
X210605744Y-126537968D01*
X210605744Y-126537968D01*
G37*
X210605744Y-126537968D02*
X210662616Y-126559087D01*
X210663267Y-126559493D01*
X210698440Y-126585380D01*
X210724407Y-126615633D01*
X210742670Y-126655058D01*
X210754732Y-126708462D01*
X210762096Y-126780651D01*
X210766264Y-126876432D01*
X210766629Y-126890078D01*
X210771876Y-127095842D01*
X210727716Y-127118678D01*
X210695763Y-127134110D01*
X210676470Y-127141423D01*
X210675578Y-127141514D01*
X210672239Y-127128022D01*
X210669587Y-127091626D01*
X210667956Y-127038452D01*
X210667600Y-126995393D01*
X210667592Y-126925641D01*
X210664403Y-126881837D01*
X210653288Y-126860944D01*
X210629501Y-126859925D01*
X210588296Y-126875741D01*
X210526086Y-126904815D01*
X210480341Y-126928963D01*
X210456813Y-126949913D01*
X210449896Y-126972747D01*
X210449886Y-126973877D01*
X210461299Y-127013212D01*
X210495092Y-127034462D01*
X210546809Y-127037539D01*
X210584061Y-127037006D01*
X210603703Y-127047735D01*
X210615952Y-127073505D01*
X210623002Y-127106337D01*
X210612842Y-127124966D01*
X210609017Y-127127632D01*
X210573001Y-127138340D01*
X210522566Y-127139856D01*
X210470626Y-127132759D01*
X210433822Y-127119788D01*
X210382938Y-127076585D01*
X210354014Y-127016446D01*
X210348286Y-126969462D01*
X210352657Y-126927082D01*
X210368475Y-126892488D01*
X210399797Y-126861763D01*
X210450678Y-126830990D01*
X210525176Y-126796252D01*
X210529714Y-126794288D01*
X210596821Y-126763287D01*
X210638232Y-126737862D01*
X210655981Y-126715014D01*
X210652107Y-126691745D01*
X210628643Y-126665056D01*
X210621627Y-126658914D01*
X210574630Y-126635100D01*
X210525933Y-126636103D01*
X210483522Y-126659451D01*
X210455384Y-126702675D01*
X210452769Y-126711160D01*
X210427308Y-126752308D01*
X210395001Y-126772128D01*
X210348286Y-126791770D01*
X210348286Y-126740950D01*
X210362496Y-126667082D01*
X210404675Y-126599327D01*
X210426624Y-126576661D01*
X210476517Y-126547569D01*
X210539967Y-126534400D01*
X210605744Y-126537968D01*
G36*
X211095926Y-126536755D02*
X211161858Y-126561084D01*
X211215273Y-126604117D01*
X211236164Y-126634409D01*
X211258939Y-126689994D01*
X211258466Y-126730186D01*
X211234562Y-126757217D01*
X211225717Y-126761813D01*
X211187530Y-126776144D01*
X211168028Y-126772472D01*
X211161422Y-126748407D01*
X211161086Y-126735114D01*
X211148992Y-126686210D01*
X211117471Y-126651999D01*
X211073659Y-126635476D01*
X211024695Y-126639634D01*
X210984894Y-126661227D01*
X210971450Y-126673544D01*
X210961921Y-126688487D01*
X210955485Y-126711075D01*
X210951317Y-126746328D01*
X210948597Y-126799266D01*
X210946502Y-126874907D01*
X210945960Y-126898857D01*
X210943981Y-126980790D01*
X210941731Y-127038455D01*
X210938357Y-127076608D01*
X210933006Y-127100004D01*
X210924824Y-127113398D01*
X210912959Y-127121545D01*
X210905362Y-127125144D01*
X210873102Y-127137452D01*
X210854111Y-127141514D01*
X210847836Y-127127948D01*
X210844006Y-127086934D01*
X210842600Y-127017999D01*
X210843598Y-126920669D01*
X210843908Y-126905657D01*
X210846101Y-126816859D01*
X210848693Y-126752019D01*
X210852382Y-126706067D01*
X210857864Y-126673935D01*
X210865835Y-126650553D01*
X210876993Y-126630852D01*
X210882830Y-126622410D01*
X210916296Y-126585057D01*
X210953727Y-126556003D01*
X210958309Y-126553467D01*
X211025426Y-126533443D01*
X211095926Y-126536755D01*
X211095926Y-126536755D01*
G37*
X211095926Y-126536755D02*
X211161858Y-126561084D01*
X211215273Y-126604117D01*
X211236164Y-126634409D01*
X211258939Y-126689994D01*
X211258466Y-126730186D01*
X211234562Y-126757217D01*
X211225717Y-126761813D01*
X211187530Y-126776144D01*
X211168028Y-126772472D01*
X211161422Y-126748407D01*
X211161086Y-126735114D01*
X211148992Y-126686210D01*
X211117471Y-126651999D01*
X211073659Y-126635476D01*
X211024695Y-126639634D01*
X210984894Y-126661227D01*
X210971450Y-126673544D01*
X210961921Y-126688487D01*
X210955485Y-126711075D01*
X210951317Y-126746328D01*
X210948597Y-126799266D01*
X210946502Y-126874907D01*
X210945960Y-126898857D01*
X210943981Y-126980790D01*
X210941731Y-127038455D01*
X210938357Y-127076608D01*
X210933006Y-127100004D01*
X210924824Y-127113398D01*
X210912959Y-127121545D01*
X210905362Y-127125144D01*
X210873102Y-127137452D01*
X210854111Y-127141514D01*
X210847836Y-127127948D01*
X210844006Y-127086934D01*
X210842600Y-127017999D01*
X210843598Y-126920669D01*
X210843908Y-126905657D01*
X210846101Y-126816859D01*
X210848693Y-126752019D01*
X210852382Y-126706067D01*
X210857864Y-126673935D01*
X210865835Y-126650553D01*
X210876993Y-126630852D01*
X210882830Y-126622410D01*
X210916296Y-126585057D01*
X210953727Y-126556003D01*
X210958309Y-126553467D01*
X211025426Y-126533443D01*
X211095926Y-126536755D01*
G36*
X211756117Y-126652358D02*
X211755933Y-126760837D01*
X211755219Y-126844287D01*
X211753675Y-126906704D01*
X211751001Y-126952085D01*
X211746894Y-126984429D01*
X211741055Y-127007733D01*
X211733182Y-127025995D01*
X211727221Y-127036418D01*
X211677855Y-127092945D01*
X211615264Y-127128377D01*
X211546013Y-127141090D01*
X211476668Y-127129463D01*
X211435375Y-127108568D01*
X211392025Y-127072422D01*
X211362481Y-127028276D01*
X211344655Y-126970462D01*
X211336463Y-126893313D01*
X211335302Y-126836714D01*
X211335458Y-126832647D01*
X211436857Y-126832647D01*
X211437476Y-126897550D01*
X211440314Y-126940514D01*
X211446840Y-126968622D01*
X211458523Y-126988953D01*
X211472483Y-127004288D01*
X211519365Y-127033890D01*
X211569701Y-127036419D01*
X211617276Y-127011705D01*
X211620979Y-127008356D01*
X211636783Y-126990935D01*
X211646693Y-126970209D01*
X211652058Y-126939362D01*
X211654228Y-126891577D01*
X211654571Y-126838748D01*
X211653827Y-126772381D01*
X211650748Y-126728106D01*
X211644061Y-126699009D01*
X211632496Y-126678173D01*
X211623013Y-126667107D01*
X211578960Y-126639198D01*
X211528224Y-126635843D01*
X211479796Y-126657159D01*
X211470450Y-126665073D01*
X211454540Y-126682647D01*
X211444610Y-126703587D01*
X211439278Y-126734782D01*
X211437163Y-126783122D01*
X211436857Y-126832647D01*
X211335458Y-126832647D01*
X211338810Y-126745568D01*
X211350726Y-126677086D01*
X211373135Y-126625600D01*
X211408124Y-126585443D01*
X211435375Y-126564861D01*
X211484907Y-126542625D01*
X211542316Y-126532304D01*
X211595682Y-126535067D01*
X211625543Y-126546212D01*
X211637261Y-126549383D01*
X211645037Y-126537557D01*
X211650465Y-126505866D01*
X211654571Y-126457593D01*
X211659067Y-126403829D01*
X211665313Y-126371482D01*
X211676676Y-126352985D01*
X211696528Y-126340770D01*
X211709000Y-126335362D01*
X211756171Y-126315601D01*
X211756117Y-126652358D01*
X211756117Y-126652358D01*
G37*
X211756117Y-126652358D02*
X211755933Y-126760837D01*
X211755219Y-126844287D01*
X211753675Y-126906704D01*
X211751001Y-126952085D01*
X211746894Y-126984429D01*
X211741055Y-127007733D01*
X211733182Y-127025995D01*
X211727221Y-127036418D01*
X211677855Y-127092945D01*
X211615264Y-127128377D01*
X211546013Y-127141090D01*
X211476668Y-127129463D01*
X211435375Y-127108568D01*
X211392025Y-127072422D01*
X211362481Y-127028276D01*
X211344655Y-126970462D01*
X211336463Y-126893313D01*
X211335302Y-126836714D01*
X211335458Y-126832647D01*
X211436857Y-126832647D01*
X211437476Y-126897550D01*
X211440314Y-126940514D01*
X211446840Y-126968622D01*
X211458523Y-126988953D01*
X211472483Y-127004288D01*
X211519365Y-127033890D01*
X211569701Y-127036419D01*
X211617276Y-127011705D01*
X211620979Y-127008356D01*
X211636783Y-126990935D01*
X211646693Y-126970209D01*
X211652058Y-126939362D01*
X211654228Y-126891577D01*
X211654571Y-126838748D01*
X211653827Y-126772381D01*
X211650748Y-126728106D01*
X211644061Y-126699009D01*
X211632496Y-126678173D01*
X211623013Y-126667107D01*
X211578960Y-126639198D01*
X211528224Y-126635843D01*
X211479796Y-126657159D01*
X211470450Y-126665073D01*
X211454540Y-126682647D01*
X211444610Y-126703587D01*
X211439278Y-126734782D01*
X211437163Y-126783122D01*
X211436857Y-126832647D01*
X211335458Y-126832647D01*
X211338810Y-126745568D01*
X211350726Y-126677086D01*
X211373135Y-126625600D01*
X211408124Y-126585443D01*
X211435375Y-126564861D01*
X211484907Y-126542625D01*
X211542316Y-126532304D01*
X211595682Y-126535067D01*
X211625543Y-126546212D01*
X211637261Y-126549383D01*
X211645037Y-126537557D01*
X211650465Y-126505866D01*
X211654571Y-126457593D01*
X211659067Y-126403829D01*
X211665313Y-126371482D01*
X211676676Y-126352985D01*
X211696528Y-126340770D01*
X211709000Y-126335362D01*
X211756171Y-126315601D01*
X211756117Y-126652358D01*
G36*
X212345833Y-126545663D02*
X212348048Y-126583850D01*
X212349784Y-126641886D01*
X212350899Y-126715180D01*
X212351257Y-126792055D01*
X212351257Y-127052196D01*
X212305326Y-127098127D01*
X212273675Y-127126429D01*
X212245890Y-127137893D01*
X212207915Y-127137168D01*
X212192840Y-127135321D01*
X212145726Y-127129948D01*
X212106756Y-127126869D01*
X212097257Y-127126585D01*
X212065233Y-127128445D01*
X212019432Y-127133114D01*
X212001674Y-127135321D01*
X211958057Y-127138735D01*
X211928745Y-127131320D01*
X211899680Y-127108427D01*
X211889188Y-127098127D01*
X211843257Y-127052196D01*
X211843257Y-126565602D01*
X211880226Y-126548758D01*
X211912059Y-126536282D01*
X211930683Y-126531914D01*
X211935458Y-126545718D01*
X211939921Y-126584286D01*
X211943775Y-126643356D01*
X211946722Y-126718663D01*
X211948143Y-126782286D01*
X211952114Y-127032657D01*
X211986759Y-127037556D01*
X212018268Y-127034131D01*
X212033708Y-127023041D01*
X212038023Y-127002308D01*
X212041708Y-126958145D01*
X212044469Y-126896146D01*
X212046012Y-126821909D01*
X212046235Y-126783706D01*
X212046457Y-126563783D01*
X212092166Y-126547849D01*
X212124518Y-126537015D01*
X212142115Y-126531962D01*
X212142623Y-126531914D01*
X212144388Y-126545648D01*
X212146329Y-126583730D01*
X212148282Y-126641482D01*
X212150084Y-126714227D01*
X212151343Y-126782286D01*
X212155314Y-127032657D01*
X212242400Y-127032657D01*
X212246396Y-126804240D01*
X212250392Y-126575822D01*
X212292847Y-126553868D01*
X212324192Y-126538793D01*
X212342744Y-126531951D01*
X212343279Y-126531914D01*
X212345833Y-126545663D01*
X212345833Y-126545663D01*
G37*
X212345833Y-126545663D02*
X212348048Y-126583850D01*
X212349784Y-126641886D01*
X212350899Y-126715180D01*
X212351257Y-126792055D01*
X212351257Y-127052196D01*
X212305326Y-127098127D01*
X212273675Y-127126429D01*
X212245890Y-127137893D01*
X212207915Y-127137168D01*
X212192840Y-127135321D01*
X212145726Y-127129948D01*
X212106756Y-127126869D01*
X212097257Y-127126585D01*
X212065233Y-127128445D01*
X212019432Y-127133114D01*
X212001674Y-127135321D01*
X211958057Y-127138735D01*
X211928745Y-127131320D01*
X211899680Y-127108427D01*
X211889188Y-127098127D01*
X211843257Y-127052196D01*
X211843257Y-126565602D01*
X211880226Y-126548758D01*
X211912059Y-126536282D01*
X211930683Y-126531914D01*
X211935458Y-126545718D01*
X211939921Y-126584286D01*
X211943775Y-126643356D01*
X211946722Y-126718663D01*
X211948143Y-126782286D01*
X211952114Y-127032657D01*
X211986759Y-127037556D01*
X212018268Y-127034131D01*
X212033708Y-127023041D01*
X212038023Y-127002308D01*
X212041708Y-126958145D01*
X212044469Y-126896146D01*
X212046012Y-126821909D01*
X212046235Y-126783706D01*
X212046457Y-126563783D01*
X212092166Y-126547849D01*
X212124518Y-126537015D01*
X212142115Y-126531962D01*
X212142623Y-126531914D01*
X212144388Y-126545648D01*
X212146329Y-126583730D01*
X212148282Y-126641482D01*
X212150084Y-126714227D01*
X212151343Y-126782286D01*
X212155314Y-127032657D01*
X212242400Y-127032657D01*
X212246396Y-126804240D01*
X212250392Y-126575822D01*
X212292847Y-126553868D01*
X212324192Y-126538793D01*
X212342744Y-126531951D01*
X212343279Y-126531914D01*
X212345833Y-126545663D01*
G36*
X212710876Y-126543335D02*
X212752667Y-126562344D01*
X212785469Y-126585378D01*
X212809503Y-126611133D01*
X212826097Y-126644358D01*
X212836577Y-126689800D01*
X212842271Y-126752207D01*
X212844507Y-126836327D01*
X212844743Y-126891721D01*
X212844743Y-127107826D01*
X212807774Y-127124670D01*
X212778656Y-127136981D01*
X212764231Y-127141514D01*
X212761472Y-127128025D01*
X212759282Y-127091653D01*
X212757942Y-127038542D01*
X212757657Y-126996372D01*
X212756434Y-126935447D01*
X212753136Y-126887115D01*
X212748321Y-126857518D01*
X212744496Y-126851229D01*
X212718783Y-126857652D01*
X212678418Y-126874125D01*
X212631679Y-126896458D01*
X212586845Y-126920457D01*
X212552193Y-126941930D01*
X212536002Y-126956685D01*
X212535938Y-126956845D01*
X212537330Y-126984152D01*
X212549818Y-127010219D01*
X212571743Y-127031392D01*
X212603743Y-127038474D01*
X212631092Y-127037649D01*
X212669826Y-127037042D01*
X212690158Y-127046116D01*
X212702369Y-127070092D01*
X212703909Y-127074613D01*
X212709203Y-127108806D01*
X212695047Y-127129568D01*
X212658148Y-127139462D01*
X212618289Y-127141292D01*
X212546562Y-127127727D01*
X212509432Y-127108355D01*
X212463576Y-127062845D01*
X212439256Y-127006983D01*
X212437073Y-126947957D01*
X212457629Y-126892953D01*
X212488549Y-126858486D01*
X212519420Y-126839189D01*
X212567942Y-126814759D01*
X212624485Y-126789985D01*
X212633910Y-126786199D01*
X212696019Y-126758791D01*
X212731822Y-126734634D01*
X212743337Y-126710619D01*
X212732580Y-126683635D01*
X212714114Y-126662543D01*
X212670469Y-126636572D01*
X212622446Y-126634624D01*
X212578406Y-126654637D01*
X212546709Y-126694551D01*
X212542549Y-126704848D01*
X212518327Y-126742724D01*
X212482965Y-126770842D01*
X212438343Y-126793917D01*
X212438343Y-126728485D01*
X212440969Y-126688506D01*
X212452230Y-126656997D01*
X212477199Y-126623378D01*
X212501169Y-126597484D01*
X212538441Y-126560817D01*
X212567401Y-126541121D01*
X212598505Y-126533220D01*
X212633713Y-126531914D01*
X212710876Y-126543335D01*
X212710876Y-126543335D01*
G37*
X212710876Y-126543335D02*
X212752667Y-126562344D01*
X212785469Y-126585378D01*
X212809503Y-126611133D01*
X212826097Y-126644358D01*
X212836577Y-126689800D01*
X212842271Y-126752207D01*
X212844507Y-126836327D01*
X212844743Y-126891721D01*
X212844743Y-127107826D01*
X212807774Y-127124670D01*
X212778656Y-127136981D01*
X212764231Y-127141514D01*
X212761472Y-127128025D01*
X212759282Y-127091653D01*
X212757942Y-127038542D01*
X212757657Y-126996372D01*
X212756434Y-126935447D01*
X212753136Y-126887115D01*
X212748321Y-126857518D01*
X212744496Y-126851229D01*
X212718783Y-126857652D01*
X212678418Y-126874125D01*
X212631679Y-126896458D01*
X212586845Y-126920457D01*
X212552193Y-126941930D01*
X212536002Y-126956685D01*
X212535938Y-126956845D01*
X212537330Y-126984152D01*
X212549818Y-127010219D01*
X212571743Y-127031392D01*
X212603743Y-127038474D01*
X212631092Y-127037649D01*
X212669826Y-127037042D01*
X212690158Y-127046116D01*
X212702369Y-127070092D01*
X212703909Y-127074613D01*
X212709203Y-127108806D01*
X212695047Y-127129568D01*
X212658148Y-127139462D01*
X212618289Y-127141292D01*
X212546562Y-127127727D01*
X212509432Y-127108355D01*
X212463576Y-127062845D01*
X212439256Y-127006983D01*
X212437073Y-126947957D01*
X212457629Y-126892953D01*
X212488549Y-126858486D01*
X212519420Y-126839189D01*
X212567942Y-126814759D01*
X212624485Y-126789985D01*
X212633910Y-126786199D01*
X212696019Y-126758791D01*
X212731822Y-126734634D01*
X212743337Y-126710619D01*
X212732580Y-126683635D01*
X212714114Y-126662543D01*
X212670469Y-126636572D01*
X212622446Y-126634624D01*
X212578406Y-126654637D01*
X212546709Y-126694551D01*
X212542549Y-126704848D01*
X212518327Y-126742724D01*
X212482965Y-126770842D01*
X212438343Y-126793917D01*
X212438343Y-126728485D01*
X212440969Y-126688506D01*
X212452230Y-126656997D01*
X212477199Y-126623378D01*
X212501169Y-126597484D01*
X212538441Y-126560817D01*
X212567401Y-126541121D01*
X212598505Y-126533220D01*
X212633713Y-126531914D01*
X212710876Y-126543335D01*
G36*
X213218600Y-126545752D02*
X213235948Y-126553334D01*
X213277356Y-126586128D01*
X213312765Y-126633547D01*
X213334664Y-126684151D01*
X213338229Y-126709098D01*
X213326279Y-126743927D01*
X213300067Y-126762357D01*
X213271964Y-126773516D01*
X213259095Y-126775572D01*
X213252829Y-126760649D01*
X213240456Y-126728175D01*
X213235028Y-126713502D01*
X213204590Y-126662744D01*
X213160520Y-126637427D01*
X213104010Y-126638206D01*
X213099825Y-126639203D01*
X213069655Y-126653507D01*
X213047476Y-126681393D01*
X213032327Y-126726287D01*
X213023250Y-126791615D01*
X213019286Y-126880804D01*
X213018914Y-126928261D01*
X213018730Y-127003071D01*
X213017522Y-127054069D01*
X213014309Y-127086471D01*
X213008109Y-127105495D01*
X212997940Y-127116356D01*
X212982819Y-127124272D01*
X212981946Y-127124670D01*
X212952828Y-127136981D01*
X212938403Y-127141514D01*
X212936186Y-127127809D01*
X212934289Y-127089925D01*
X212932847Y-127032715D01*
X212931998Y-126961027D01*
X212931829Y-126908565D01*
X212932692Y-126807047D01*
X212936070Y-126730032D01*
X212943142Y-126673023D01*
X212955088Y-126631526D01*
X212973090Y-126601043D01*
X212998327Y-126577080D01*
X213023247Y-126560355D01*
X213083171Y-126538097D01*
X213152911Y-126533076D01*
X213218600Y-126545752D01*
X213218600Y-126545752D01*
G37*
X213218600Y-126545752D02*
X213235948Y-126553334D01*
X213277356Y-126586128D01*
X213312765Y-126633547D01*
X213334664Y-126684151D01*
X213338229Y-126709098D01*
X213326279Y-126743927D01*
X213300067Y-126762357D01*
X213271964Y-126773516D01*
X213259095Y-126775572D01*
X213252829Y-126760649D01*
X213240456Y-126728175D01*
X213235028Y-126713502D01*
X213204590Y-126662744D01*
X213160520Y-126637427D01*
X213104010Y-126638206D01*
X213099825Y-126639203D01*
X213069655Y-126653507D01*
X213047476Y-126681393D01*
X213032327Y-126726287D01*
X213023250Y-126791615D01*
X213019286Y-126880804D01*
X213018914Y-126928261D01*
X213018730Y-127003071D01*
X213017522Y-127054069D01*
X213014309Y-127086471D01*
X213008109Y-127105495D01*
X212997940Y-127116356D01*
X212982819Y-127124272D01*
X212981946Y-127124670D01*
X212952828Y-127136981D01*
X212938403Y-127141514D01*
X212936186Y-127127809D01*
X212934289Y-127089925D01*
X212932847Y-127032715D01*
X212931998Y-126961027D01*
X212931829Y-126908565D01*
X212932692Y-126807047D01*
X212936070Y-126730032D01*
X212943142Y-126673023D01*
X212955088Y-126631526D01*
X212973090Y-126601043D01*
X212998327Y-126577080D01*
X213023247Y-126560355D01*
X213083171Y-126538097D01*
X213152911Y-126533076D01*
X213218600Y-126545752D01*
G36*
X213719595Y-126553966D02*
X213777021Y-126591497D01*
X213804719Y-126625096D01*
X213826662Y-126686064D01*
X213828405Y-126734308D01*
X213824457Y-126798816D01*
X213675686Y-126863934D01*
X213603349Y-126897202D01*
X213556084Y-126923964D01*
X213531507Y-126947144D01*
X213527237Y-126969667D01*
X213540889Y-126994455D01*
X213555943Y-127010886D01*
X213599746Y-127037235D01*
X213647389Y-127039081D01*
X213691145Y-127018546D01*
X213723289Y-126977752D01*
X213729038Y-126963347D01*
X213756576Y-126918356D01*
X213788258Y-126899182D01*
X213831714Y-126882779D01*
X213831714Y-126944966D01*
X213827872Y-126987283D01*
X213812823Y-127022969D01*
X213781280Y-127063943D01*
X213776592Y-127069267D01*
X213741506Y-127105720D01*
X213711347Y-127125283D01*
X213673615Y-127134283D01*
X213642335Y-127137230D01*
X213586385Y-127137965D01*
X213546555Y-127128660D01*
X213521708Y-127114846D01*
X213482656Y-127084467D01*
X213455625Y-127051613D01*
X213438517Y-127010294D01*
X213429238Y-126954521D01*
X213425693Y-126878305D01*
X213425410Y-126839622D01*
X213426372Y-126793247D01*
X213514007Y-126793247D01*
X213515023Y-126818126D01*
X213517556Y-126822200D01*
X213534274Y-126816665D01*
X213570249Y-126802017D01*
X213618331Y-126781190D01*
X213628386Y-126776714D01*
X213689152Y-126745814D01*
X213722632Y-126718657D01*
X213729990Y-126693220D01*
X213712391Y-126667481D01*
X213697856Y-126656109D01*
X213645410Y-126633364D01*
X213596322Y-126637122D01*
X213555227Y-126664884D01*
X213526758Y-126714152D01*
X213517631Y-126753257D01*
X213514007Y-126793247D01*
X213426372Y-126793247D01*
X213427285Y-126749249D01*
X213434196Y-126682384D01*
X213447884Y-126633695D01*
X213470096Y-126597849D01*
X213502574Y-126569513D01*
X213516733Y-126560355D01*
X213581053Y-126536507D01*
X213651473Y-126535006D01*
X213719595Y-126553966D01*
X213719595Y-126553966D01*
G37*
X213719595Y-126553966D02*
X213777021Y-126591497D01*
X213804719Y-126625096D01*
X213826662Y-126686064D01*
X213828405Y-126734308D01*
X213824457Y-126798816D01*
X213675686Y-126863934D01*
X213603349Y-126897202D01*
X213556084Y-126923964D01*
X213531507Y-126947144D01*
X213527237Y-126969667D01*
X213540889Y-126994455D01*
X213555943Y-127010886D01*
X213599746Y-127037235D01*
X213647389Y-127039081D01*
X213691145Y-127018546D01*
X213723289Y-126977752D01*
X213729038Y-126963347D01*
X213756576Y-126918356D01*
X213788258Y-126899182D01*
X213831714Y-126882779D01*
X213831714Y-126944966D01*
X213827872Y-126987283D01*
X213812823Y-127022969D01*
X213781280Y-127063943D01*
X213776592Y-127069267D01*
X213741506Y-127105720D01*
X213711347Y-127125283D01*
X213673615Y-127134283D01*
X213642335Y-127137230D01*
X213586385Y-127137965D01*
X213546555Y-127128660D01*
X213521708Y-127114846D01*
X213482656Y-127084467D01*
X213455625Y-127051613D01*
X213438517Y-127010294D01*
X213429238Y-126954521D01*
X213425693Y-126878305D01*
X213425410Y-126839622D01*
X213426372Y-126793247D01*
X213514007Y-126793247D01*
X213515023Y-126818126D01*
X213517556Y-126822200D01*
X213534274Y-126816665D01*
X213570249Y-126802017D01*
X213618331Y-126781190D01*
X213628386Y-126776714D01*
X213689152Y-126745814D01*
X213722632Y-126718657D01*
X213729990Y-126693220D01*
X213712391Y-126667481D01*
X213697856Y-126656109D01*
X213645410Y-126633364D01*
X213596322Y-126637122D01*
X213555227Y-126664884D01*
X213526758Y-126714152D01*
X213517631Y-126753257D01*
X213514007Y-126793247D01*
X213426372Y-126793247D01*
X213427285Y-126749249D01*
X213434196Y-126682384D01*
X213447884Y-126633695D01*
X213470096Y-126597849D01*
X213502574Y-126569513D01*
X213516733Y-126560355D01*
X213581053Y-126536507D01*
X213651473Y-126535006D01*
X213719595Y-126553966D01*
G36*
X210669910Y-121829348D02*
X210748454Y-121829778D01*
X210805298Y-121830942D01*
X210844105Y-121833207D01*
X210868538Y-121836940D01*
X210882262Y-121842506D01*
X210888940Y-121850273D01*
X210892236Y-121860605D01*
X210892556Y-121861943D01*
X210897562Y-121886079D01*
X210906829Y-121933701D01*
X210919392Y-121999741D01*
X210934287Y-122079128D01*
X210950551Y-122166796D01*
X210951119Y-122169875D01*
X210967410Y-122255789D01*
X210982652Y-122331696D01*
X210995861Y-122393045D01*
X211006054Y-122435282D01*
X211012248Y-122453855D01*
X211012543Y-122454184D01*
X211030788Y-122463253D01*
X211068405Y-122478367D01*
X211117271Y-122496262D01*
X211117543Y-122496358D01*
X211179093Y-122519493D01*
X211251657Y-122548965D01*
X211320057Y-122578597D01*
X211323294Y-122580062D01*
X211434702Y-122630626D01*
X211681399Y-122462160D01*
X211757077Y-122410803D01*
X211825631Y-122364889D01*
X211883088Y-122327030D01*
X211925476Y-122299837D01*
X211948825Y-122285921D01*
X211951042Y-122284889D01*
X211968010Y-122289484D01*
X211999701Y-122311655D01*
X212047352Y-122352447D01*
X212112198Y-122412905D01*
X212178397Y-122477227D01*
X212242214Y-122540612D01*
X212299329Y-122598451D01*
X212346305Y-122647175D01*
X212379703Y-122683210D01*
X212396085Y-122702984D01*
X212396694Y-122704002D01*
X212398505Y-122717572D01*
X212391683Y-122739733D01*
X212374540Y-122773478D01*
X212345393Y-122821800D01*
X212302555Y-122887692D01*
X212245448Y-122972517D01*
X212194766Y-123047177D01*
X212149461Y-123114140D01*
X212112150Y-123169516D01*
X212085452Y-123209420D01*
X212071985Y-123229962D01*
X212071137Y-123231356D01*
X212072781Y-123251038D01*
X212085245Y-123289293D01*
X212106048Y-123338889D01*
X212113462Y-123354728D01*
X212145814Y-123425290D01*
X212180328Y-123505353D01*
X212208365Y-123574629D01*
X212228568Y-123626045D01*
X212244615Y-123665119D01*
X212253888Y-123685541D01*
X212255041Y-123687114D01*
X212272096Y-123689721D01*
X212312298Y-123696863D01*
X212370302Y-123707523D01*
X212440763Y-123720685D01*
X212518335Y-123735333D01*
X212597672Y-123750449D01*
X212673431Y-123765018D01*
X212740264Y-123778022D01*
X212792828Y-123788445D01*
X212825776Y-123795270D01*
X212833857Y-123797199D01*
X212842205Y-123801962D01*
X212848506Y-123812718D01*
X212853045Y-123833098D01*
X212856104Y-123866734D01*
X212857967Y-123917255D01*
X212858918Y-123988292D01*
X212859240Y-124083476D01*
X212859257Y-124122492D01*
X212859257Y-124439799D01*
X212783057Y-124454839D01*
X212740663Y-124462995D01*
X212677400Y-124474899D01*
X212600962Y-124489116D01*
X212519043Y-124504210D01*
X212496400Y-124508355D01*
X212420806Y-124523053D01*
X212354953Y-124537505D01*
X212304366Y-124550375D01*
X212274574Y-124560322D01*
X212269612Y-124563287D01*
X212257426Y-124584283D01*
X212239953Y-124624967D01*
X212220577Y-124677322D01*
X212216734Y-124688600D01*
X212191339Y-124758523D01*
X212159817Y-124837418D01*
X212128969Y-124908266D01*
X212128817Y-124908595D01*
X212077447Y-125019733D01*
X212246399Y-125268253D01*
X212415352Y-125516772D01*
X212198429Y-125734058D01*
X212132819Y-125798726D01*
X212072979Y-125855733D01*
X212022267Y-125902033D01*
X211984046Y-125934584D01*
X211961675Y-125950343D01*
X211958466Y-125951343D01*
X211939626Y-125943469D01*
X211901180Y-125921578D01*
X211847330Y-125888267D01*
X211782276Y-125846131D01*
X211711940Y-125798943D01*
X211640555Y-125750810D01*
X211576908Y-125708928D01*
X211525041Y-125675871D01*
X211488995Y-125654218D01*
X211472867Y-125646543D01*
X211453189Y-125653037D01*
X211415875Y-125670150D01*
X211368621Y-125694326D01*
X211363612Y-125697013D01*
X211299977Y-125728927D01*
X211256341Y-125744579D01*
X211229202Y-125744745D01*
X211215057Y-125730204D01*
X211214975Y-125730000D01*
X211207905Y-125712779D01*
X211191042Y-125671899D01*
X211165695Y-125610525D01*
X211133171Y-125531819D01*
X211094778Y-125438947D01*
X211051822Y-125335072D01*
X211010222Y-125234502D01*
X210964504Y-125123516D01*
X210922526Y-125020703D01*
X210885548Y-124929215D01*
X210854827Y-124852201D01*
X210831622Y-124792815D01*
X210817190Y-124754209D01*
X210812743Y-124739800D01*
X210823896Y-124723272D01*
X210853069Y-124696930D01*
X210891971Y-124667887D01*
X211002757Y-124576039D01*
X211089351Y-124470759D01*
X211150716Y-124354266D01*
X211185815Y-124228776D01*
X211193608Y-124096507D01*
X211187943Y-124035457D01*
X211157078Y-123908795D01*
X211103920Y-123796941D01*
X211031767Y-123701001D01*
X210943917Y-123622076D01*
X210843665Y-123561270D01*
X210734310Y-123519687D01*
X210619147Y-123498428D01*
X210501475Y-123498599D01*
X210384590Y-123521301D01*
X210271789Y-123567638D01*
X210166369Y-123638713D01*
X210122368Y-123678911D01*
X210037979Y-123782129D01*
X209979222Y-123894925D01*
X209945704Y-124014010D01*
X209937035Y-124136095D01*
X209952823Y-124257893D01*
X209992678Y-124376116D01*
X210056207Y-124487475D01*
X210143021Y-124588684D01*
X210240029Y-124667887D01*
X210280437Y-124698162D01*
X210308982Y-124724219D01*
X210319257Y-124739825D01*
X210313877Y-124756843D01*
X210298575Y-124797500D01*
X210274612Y-124858642D01*
X210243244Y-124937119D01*
X210205732Y-125029780D01*
X210163333Y-125133472D01*
X210121663Y-125234526D01*
X210075690Y-125345607D01*
X210033107Y-125448541D01*
X209995221Y-125540165D01*
X209963340Y-125617316D01*
X209938771Y-125676831D01*
X209922820Y-125715544D01*
X209916910Y-125730000D01*
X209902948Y-125744685D01*
X209875940Y-125744642D01*
X209832413Y-125729099D01*
X209768890Y-125697284D01*
X209768388Y-125697013D01*
X209720560Y-125672323D01*
X209681897Y-125654338D01*
X209660095Y-125646614D01*
X209659133Y-125646543D01*
X209642721Y-125654378D01*
X209606487Y-125676165D01*
X209554474Y-125709328D01*
X209490725Y-125751291D01*
X209420060Y-125798943D01*
X209348116Y-125847191D01*
X209283274Y-125889151D01*
X209229735Y-125922227D01*
X209191697Y-125943821D01*
X209173533Y-125951343D01*
X209156808Y-125941457D01*
X209123180Y-125913826D01*
X209076010Y-125871495D01*
X209018658Y-125817505D01*
X208954484Y-125754899D01*
X208933497Y-125733983D01*
X208716499Y-125516623D01*
X208881668Y-125274220D01*
X208931864Y-125199781D01*
X208975919Y-125132972D01*
X209011362Y-125077665D01*
X209035719Y-125037729D01*
X209046522Y-125017036D01*
X209046838Y-125015563D01*
X209041143Y-124996058D01*
X209025826Y-124956822D01*
X209003537Y-124904430D01*
X208987893Y-124869355D01*
X208958641Y-124802201D01*
X208931094Y-124734358D01*
X208909737Y-124677034D01*
X208903935Y-124659572D01*
X208887452Y-124612938D01*
X208871340Y-124576905D01*
X208862490Y-124563287D01*
X208842960Y-124554952D01*
X208800334Y-124543137D01*
X208740145Y-124529181D01*
X208667922Y-124514422D01*
X208635600Y-124508355D01*
X208553522Y-124493273D01*
X208474795Y-124478669D01*
X208407109Y-124465980D01*
X208358160Y-124456642D01*
X208348943Y-124454839D01*
X208272743Y-124439799D01*
X208272743Y-124122492D01*
X208272914Y-124018154D01*
X208273616Y-123939213D01*
X208275134Y-123882038D01*
X208277749Y-123842999D01*
X208281746Y-123818465D01*
X208287409Y-123804805D01*
X208295020Y-123798389D01*
X208298143Y-123797199D01*
X208316978Y-123792980D01*
X208358588Y-123784562D01*
X208417630Y-123772961D01*
X208488757Y-123759195D01*
X208566625Y-123744280D01*
X208645887Y-123729232D01*
X208721198Y-123715069D01*
X208787213Y-123702806D01*
X208838587Y-123693461D01*
X208869975Y-123688050D01*
X208876959Y-123687114D01*
X208883285Y-123674596D01*
X208897290Y-123641246D01*
X208916355Y-123593377D01*
X208923634Y-123574629D01*
X208952996Y-123502195D01*
X208987571Y-123422170D01*
X209018537Y-123354728D01*
X209041323Y-123303159D01*
X209056482Y-123260785D01*
X209061542Y-123234834D01*
X209060736Y-123231356D01*
X209050041Y-123214936D01*
X209025620Y-123178417D01*
X208990095Y-123125687D01*
X208946087Y-123060635D01*
X208896217Y-122987151D01*
X208886356Y-122972645D01*
X208828492Y-122886704D01*
X208785956Y-122821261D01*
X208757054Y-122773304D01*
X208740090Y-122739820D01*
X208733367Y-122717795D01*
X208735190Y-122704217D01*
X208735236Y-122704131D01*
X208749586Y-122686297D01*
X208781323Y-122651817D01*
X208827010Y-122604268D01*
X208883204Y-122547222D01*
X208946468Y-122484255D01*
X208953602Y-122477227D01*
X209033330Y-122400020D01*
X209094857Y-122343330D01*
X209139421Y-122306110D01*
X209168257Y-122287315D01*
X209180958Y-122284889D01*
X209199494Y-122295471D01*
X209237961Y-122319916D01*
X209292386Y-122355612D01*
X209358798Y-122399947D01*
X209433225Y-122450311D01*
X209450601Y-122462160D01*
X209697297Y-122630626D01*
X209808706Y-122580062D01*
X209876457Y-122550595D01*
X209949183Y-122520959D01*
X210011703Y-122497330D01*
X210014457Y-122496358D01*
X210063360Y-122478457D01*
X210101057Y-122463320D01*
X210119425Y-122454210D01*
X210119456Y-122454184D01*
X210125285Y-122437717D01*
X210135192Y-122397219D01*
X210148195Y-122337242D01*
X210163309Y-122262340D01*
X210179552Y-122177064D01*
X210180881Y-122169875D01*
X210197175Y-122082014D01*
X210212133Y-122002260D01*
X210224791Y-121935681D01*
X210234186Y-121887347D01*
X210239354Y-121862325D01*
X210239444Y-121861943D01*
X210242589Y-121851299D01*
X210248704Y-121843262D01*
X210261453Y-121837467D01*
X210284500Y-121833547D01*
X210321509Y-121831135D01*
X210376144Y-121829865D01*
X210452067Y-121829371D01*
X210552944Y-121829286D01*
X210566000Y-121829286D01*
X210669910Y-121829348D01*
X210669910Y-121829348D01*
G37*
X210669910Y-121829348D02*
X210748454Y-121829778D01*
X210805298Y-121830942D01*
X210844105Y-121833207D01*
X210868538Y-121836940D01*
X210882262Y-121842506D01*
X210888940Y-121850273D01*
X210892236Y-121860605D01*
X210892556Y-121861943D01*
X210897562Y-121886079D01*
X210906829Y-121933701D01*
X210919392Y-121999741D01*
X210934287Y-122079128D01*
X210950551Y-122166796D01*
X210951119Y-122169875D01*
X210967410Y-122255789D01*
X210982652Y-122331696D01*
X210995861Y-122393045D01*
X211006054Y-122435282D01*
X211012248Y-122453855D01*
X211012543Y-122454184D01*
X211030788Y-122463253D01*
X211068405Y-122478367D01*
X211117271Y-122496262D01*
X211117543Y-122496358D01*
X211179093Y-122519493D01*
X211251657Y-122548965D01*
X211320057Y-122578597D01*
X211323294Y-122580062D01*
X211434702Y-122630626D01*
X211681399Y-122462160D01*
X211757077Y-122410803D01*
X211825631Y-122364889D01*
X211883088Y-122327030D01*
X211925476Y-122299837D01*
X211948825Y-122285921D01*
X211951042Y-122284889D01*
X211968010Y-122289484D01*
X211999701Y-122311655D01*
X212047352Y-122352447D01*
X212112198Y-122412905D01*
X212178397Y-122477227D01*
X212242214Y-122540612D01*
X212299329Y-122598451D01*
X212346305Y-122647175D01*
X212379703Y-122683210D01*
X212396085Y-122702984D01*
X212396694Y-122704002D01*
X212398505Y-122717572D01*
X212391683Y-122739733D01*
X212374540Y-122773478D01*
X212345393Y-122821800D01*
X212302555Y-122887692D01*
X212245448Y-122972517D01*
X212194766Y-123047177D01*
X212149461Y-123114140D01*
X212112150Y-123169516D01*
X212085452Y-123209420D01*
X212071985Y-123229962D01*
X212071137Y-123231356D01*
X212072781Y-123251038D01*
X212085245Y-123289293D01*
X212106048Y-123338889D01*
X212113462Y-123354728D01*
X212145814Y-123425290D01*
X212180328Y-123505353D01*
X212208365Y-123574629D01*
X212228568Y-123626045D01*
X212244615Y-123665119D01*
X212253888Y-123685541D01*
X212255041Y-123687114D01*
X212272096Y-123689721D01*
X212312298Y-123696863D01*
X212370302Y-123707523D01*
X212440763Y-123720685D01*
X212518335Y-123735333D01*
X212597672Y-123750449D01*
X212673431Y-123765018D01*
X212740264Y-123778022D01*
X212792828Y-123788445D01*
X212825776Y-123795270D01*
X212833857Y-123797199D01*
X212842205Y-123801962D01*
X212848506Y-123812718D01*
X212853045Y-123833098D01*
X212856104Y-123866734D01*
X212857967Y-123917255D01*
X212858918Y-123988292D01*
X212859240Y-124083476D01*
X212859257Y-124122492D01*
X212859257Y-124439799D01*
X212783057Y-124454839D01*
X212740663Y-124462995D01*
X212677400Y-124474899D01*
X212600962Y-124489116D01*
X212519043Y-124504210D01*
X212496400Y-124508355D01*
X212420806Y-124523053D01*
X212354953Y-124537505D01*
X212304366Y-124550375D01*
X212274574Y-124560322D01*
X212269612Y-124563287D01*
X212257426Y-124584283D01*
X212239953Y-124624967D01*
X212220577Y-124677322D01*
X212216734Y-124688600D01*
X212191339Y-124758523D01*
X212159817Y-124837418D01*
X212128969Y-124908266D01*
X212128817Y-124908595D01*
X212077447Y-125019733D01*
X212246399Y-125268253D01*
X212415352Y-125516772D01*
X212198429Y-125734058D01*
X212132819Y-125798726D01*
X212072979Y-125855733D01*
X212022267Y-125902033D01*
X211984046Y-125934584D01*
X211961675Y-125950343D01*
X211958466Y-125951343D01*
X211939626Y-125943469D01*
X211901180Y-125921578D01*
X211847330Y-125888267D01*
X211782276Y-125846131D01*
X211711940Y-125798943D01*
X211640555Y-125750810D01*
X211576908Y-125708928D01*
X211525041Y-125675871D01*
X211488995Y-125654218D01*
X211472867Y-125646543D01*
X211453189Y-125653037D01*
X211415875Y-125670150D01*
X211368621Y-125694326D01*
X211363612Y-125697013D01*
X211299977Y-125728927D01*
X211256341Y-125744579D01*
X211229202Y-125744745D01*
X211215057Y-125730204D01*
X211214975Y-125730000D01*
X211207905Y-125712779D01*
X211191042Y-125671899D01*
X211165695Y-125610525D01*
X211133171Y-125531819D01*
X211094778Y-125438947D01*
X211051822Y-125335072D01*
X211010222Y-125234502D01*
X210964504Y-125123516D01*
X210922526Y-125020703D01*
X210885548Y-124929215D01*
X210854827Y-124852201D01*
X210831622Y-124792815D01*
X210817190Y-124754209D01*
X210812743Y-124739800D01*
X210823896Y-124723272D01*
X210853069Y-124696930D01*
X210891971Y-124667887D01*
X211002757Y-124576039D01*
X211089351Y-124470759D01*
X211150716Y-124354266D01*
X211185815Y-124228776D01*
X211193608Y-124096507D01*
X211187943Y-124035457D01*
X211157078Y-123908795D01*
X211103920Y-123796941D01*
X211031767Y-123701001D01*
X210943917Y-123622076D01*
X210843665Y-123561270D01*
X210734310Y-123519687D01*
X210619147Y-123498428D01*
X210501475Y-123498599D01*
X210384590Y-123521301D01*
X210271789Y-123567638D01*
X210166369Y-123638713D01*
X210122368Y-123678911D01*
X210037979Y-123782129D01*
X209979222Y-123894925D01*
X209945704Y-124014010D01*
X209937035Y-124136095D01*
X209952823Y-124257893D01*
X209992678Y-124376116D01*
X210056207Y-124487475D01*
X210143021Y-124588684D01*
X210240029Y-124667887D01*
X210280437Y-124698162D01*
X210308982Y-124724219D01*
X210319257Y-124739825D01*
X210313877Y-124756843D01*
X210298575Y-124797500D01*
X210274612Y-124858642D01*
X210243244Y-124937119D01*
X210205732Y-125029780D01*
X210163333Y-125133472D01*
X210121663Y-125234526D01*
X210075690Y-125345607D01*
X210033107Y-125448541D01*
X209995221Y-125540165D01*
X209963340Y-125617316D01*
X209938771Y-125676831D01*
X209922820Y-125715544D01*
X209916910Y-125730000D01*
X209902948Y-125744685D01*
X209875940Y-125744642D01*
X209832413Y-125729099D01*
X209768890Y-125697284D01*
X209768388Y-125697013D01*
X209720560Y-125672323D01*
X209681897Y-125654338D01*
X209660095Y-125646614D01*
X209659133Y-125646543D01*
X209642721Y-125654378D01*
X209606487Y-125676165D01*
X209554474Y-125709328D01*
X209490725Y-125751291D01*
X209420060Y-125798943D01*
X209348116Y-125847191D01*
X209283274Y-125889151D01*
X209229735Y-125922227D01*
X209191697Y-125943821D01*
X209173533Y-125951343D01*
X209156808Y-125941457D01*
X209123180Y-125913826D01*
X209076010Y-125871495D01*
X209018658Y-125817505D01*
X208954484Y-125754899D01*
X208933497Y-125733983D01*
X208716499Y-125516623D01*
X208881668Y-125274220D01*
X208931864Y-125199781D01*
X208975919Y-125132972D01*
X209011362Y-125077665D01*
X209035719Y-125037729D01*
X209046522Y-125017036D01*
X209046838Y-125015563D01*
X209041143Y-124996058D01*
X209025826Y-124956822D01*
X209003537Y-124904430D01*
X208987893Y-124869355D01*
X208958641Y-124802201D01*
X208931094Y-124734358D01*
X208909737Y-124677034D01*
X208903935Y-124659572D01*
X208887452Y-124612938D01*
X208871340Y-124576905D01*
X208862490Y-124563287D01*
X208842960Y-124554952D01*
X208800334Y-124543137D01*
X208740145Y-124529181D01*
X208667922Y-124514422D01*
X208635600Y-124508355D01*
X208553522Y-124493273D01*
X208474795Y-124478669D01*
X208407109Y-124465980D01*
X208358160Y-124456642D01*
X208348943Y-124454839D01*
X208272743Y-124439799D01*
X208272743Y-124122492D01*
X208272914Y-124018154D01*
X208273616Y-123939213D01*
X208275134Y-123882038D01*
X208277749Y-123842999D01*
X208281746Y-123818465D01*
X208287409Y-123804805D01*
X208295020Y-123798389D01*
X208298143Y-123797199D01*
X208316978Y-123792980D01*
X208358588Y-123784562D01*
X208417630Y-123772961D01*
X208488757Y-123759195D01*
X208566625Y-123744280D01*
X208645887Y-123729232D01*
X208721198Y-123715069D01*
X208787213Y-123702806D01*
X208838587Y-123693461D01*
X208869975Y-123688050D01*
X208876959Y-123687114D01*
X208883285Y-123674596D01*
X208897290Y-123641246D01*
X208916355Y-123593377D01*
X208923634Y-123574629D01*
X208952996Y-123502195D01*
X208987571Y-123422170D01*
X209018537Y-123354728D01*
X209041323Y-123303159D01*
X209056482Y-123260785D01*
X209061542Y-123234834D01*
X209060736Y-123231356D01*
X209050041Y-123214936D01*
X209025620Y-123178417D01*
X208990095Y-123125687D01*
X208946087Y-123060635D01*
X208896217Y-122987151D01*
X208886356Y-122972645D01*
X208828492Y-122886704D01*
X208785956Y-122821261D01*
X208757054Y-122773304D01*
X208740090Y-122739820D01*
X208733367Y-122717795D01*
X208735190Y-122704217D01*
X208735236Y-122704131D01*
X208749586Y-122686297D01*
X208781323Y-122651817D01*
X208827010Y-122604268D01*
X208883204Y-122547222D01*
X208946468Y-122484255D01*
X208953602Y-122477227D01*
X209033330Y-122400020D01*
X209094857Y-122343330D01*
X209139421Y-122306110D01*
X209168257Y-122287315D01*
X209180958Y-122284889D01*
X209199494Y-122295471D01*
X209237961Y-122319916D01*
X209292386Y-122355612D01*
X209358798Y-122399947D01*
X209433225Y-122450311D01*
X209450601Y-122462160D01*
X209697297Y-122630626D01*
X209808706Y-122580062D01*
X209876457Y-122550595D01*
X209949183Y-122520959D01*
X210011703Y-122497330D01*
X210014457Y-122496358D01*
X210063360Y-122478457D01*
X210101057Y-122463320D01*
X210119425Y-122454210D01*
X210119456Y-122454184D01*
X210125285Y-122437717D01*
X210135192Y-122397219D01*
X210148195Y-122337242D01*
X210163309Y-122262340D01*
X210179552Y-122177064D01*
X210180881Y-122169875D01*
X210197175Y-122082014D01*
X210212133Y-122002260D01*
X210224791Y-121935681D01*
X210234186Y-121887347D01*
X210239354Y-121862325D01*
X210239444Y-121861943D01*
X210242589Y-121851299D01*
X210248704Y-121843262D01*
X210261453Y-121837467D01*
X210284500Y-121833547D01*
X210321509Y-121831135D01*
X210376144Y-121829865D01*
X210452067Y-121829371D01*
X210552944Y-121829286D01*
X210566000Y-121829286D01*
X210669910Y-121829348D01*
D14*
X220130667Y-114109286D02*
X220130667Y-113633095D01*
X220416381Y-114204524D02*
X219416381Y-113871191D01*
X220416381Y-113537857D01*
X219416381Y-113204524D02*
X220225905Y-113204524D01*
X220321143Y-113156905D01*
X220368762Y-113109286D01*
X220416381Y-113014048D01*
X220416381Y-112823571D01*
X220368762Y-112728333D01*
X220321143Y-112680714D01*
X220225905Y-112633095D01*
X219416381Y-112633095D01*
X219416381Y-112252143D02*
X220416381Y-111585476D01*
X219416381Y-111585476D02*
X220416381Y-112252143D01*
X220416381Y-110680714D02*
X220416381Y-111252143D01*
X220416381Y-110966429D02*
X219416381Y-110966429D01*
X219559238Y-111061667D01*
X219654476Y-111156905D01*
X219702095Y-111252143D01*
D13*
X229502381Y-122249285D02*
X229502381Y-122820714D01*
X229502381Y-122535000D02*
X228502381Y-122535000D01*
X228645238Y-122630238D01*
X228740476Y-122725476D01*
X228788095Y-122820714D01*
M02*
